<mxfile host="app.diagrams.net" modified="2024-04-27T23:50:39.376Z" agent="Mozilla/5.0 (Windows NT 10.0; Win64; x64) AppleWebKit/537.36 (KHTML, like Gecko) Chrome/124.0.0.0 Safari/537.36" etag="ZPzBqf0YhTYdJnbEmTEr" version="24.3.1" type="device" pages="6">
  <diagram name="Initial Layout" id="9hjGaWA8VcukIDgfK7hn">
    <mxGraphModel dx="1434" dy="746" grid="1" gridSize="10" guides="1" tooltips="1" connect="1" arrows="1" fold="1" page="1" pageScale="1" pageWidth="850" pageHeight="1100" math="0" shadow="0">
      <root>
        <mxCell id="0" />
        <mxCell id="1" parent="0" />
        <mxCell id="zht7x1AerpyUajclCFU6-53" value="" style="endArrow=none;html=1;rounded=0;strokeWidth=4;fillColor=#1ba1e2;strokeColor=#006EAF;" parent="1" edge="1">
          <mxGeometry width="50" height="50" relative="1" as="geometry">
            <mxPoint x="256" y="99" as="sourcePoint" />
            <mxPoint x="256" y="67" as="targetPoint" />
          </mxGeometry>
        </mxCell>
        <mxCell id="zht7x1AerpyUajclCFU6-54" value="" style="endArrow=none;html=1;rounded=0;strokeWidth=4;fillColor=#6a00ff;strokeColor=#3700CC;" parent="1" edge="1">
          <mxGeometry width="50" height="50" relative="1" as="geometry">
            <mxPoint x="260" y="99" as="sourcePoint" />
            <mxPoint x="260" y="67" as="targetPoint" />
          </mxGeometry>
        </mxCell>
        <mxCell id="zht7x1AerpyUajclCFU6-55" value="" style="endArrow=none;html=1;rounded=0;strokeWidth=4;fillColor=#fa6800;strokeColor=#C73500;" parent="1" edge="1">
          <mxGeometry width="50" height="50" relative="1" as="geometry">
            <mxPoint x="268" y="99" as="sourcePoint" />
            <mxPoint x="268" y="67" as="targetPoint" />
          </mxGeometry>
        </mxCell>
        <mxCell id="zht7x1AerpyUajclCFU6-56" value="" style="endArrow=none;html=1;rounded=0;strokeWidth=4;fillColor=#a20025;strokeColor=#6F0000;" parent="1" edge="1">
          <mxGeometry width="50" height="50" relative="1" as="geometry">
            <mxPoint x="264" y="99" as="sourcePoint" />
            <mxPoint x="264" y="67" as="targetPoint" />
          </mxGeometry>
        </mxCell>
        <mxCell id="zht7x1AerpyUajclCFU6-57" value="" style="endArrow=none;html=1;rounded=0;strokeWidth=4;fillColor=#647687;strokeColor=#314354;" parent="1" edge="1">
          <mxGeometry width="50" height="50" relative="1" as="geometry">
            <mxPoint x="272" y="99" as="sourcePoint" />
            <mxPoint x="272" y="67" as="targetPoint" />
          </mxGeometry>
        </mxCell>
        <mxCell id="zht7x1AerpyUajclCFU6-58" value="" style="endArrow=none;html=1;rounded=0;strokeWidth=4;fillColor=#dae8fc;strokeColor=#8800FF;gradientColor=#7ea6e0;curved=0;" parent="1" edge="1">
          <mxGeometry width="50" height="50" relative="1" as="geometry">
            <mxPoint x="276" y="99" as="sourcePoint" />
            <mxPoint x="276" y="67" as="targetPoint" />
          </mxGeometry>
        </mxCell>
        <mxCell id="zht7x1AerpyUajclCFU6-64" value="" style="endArrow=none;html=1;rounded=0;strokeWidth=4;fillColor=#1ba1e2;strokeColor=#006EAF;" parent="1" edge="1">
          <mxGeometry width="50" height="50" relative="1" as="geometry">
            <mxPoint x="415.5" y="630" as="sourcePoint" />
            <mxPoint x="415.5" y="598" as="targetPoint" />
          </mxGeometry>
        </mxCell>
        <mxCell id="zht7x1AerpyUajclCFU6-65" value="" style="endArrow=none;html=1;rounded=0;strokeWidth=4;fillColor=#6a00ff;strokeColor=#3700CC;" parent="1" edge="1">
          <mxGeometry width="50" height="50" relative="1" as="geometry">
            <mxPoint x="419.5" y="630" as="sourcePoint" />
            <mxPoint x="419.5" y="598" as="targetPoint" />
          </mxGeometry>
        </mxCell>
        <mxCell id="zht7x1AerpyUajclCFU6-66" value="" style="endArrow=none;html=1;rounded=0;strokeWidth=4;fillColor=#fa6800;strokeColor=#C73500;" parent="1" edge="1">
          <mxGeometry width="50" height="50" relative="1" as="geometry">
            <mxPoint x="427.5" y="630" as="sourcePoint" />
            <mxPoint x="427.5" y="598" as="targetPoint" />
          </mxGeometry>
        </mxCell>
        <mxCell id="zht7x1AerpyUajclCFU6-67" value="" style="endArrow=none;html=1;rounded=0;strokeWidth=4;fillColor=#a20025;strokeColor=#6F0000;" parent="1" edge="1">
          <mxGeometry width="50" height="50" relative="1" as="geometry">
            <mxPoint x="423.5" y="630" as="sourcePoint" />
            <mxPoint x="423.5" y="598" as="targetPoint" />
          </mxGeometry>
        </mxCell>
        <mxCell id="zht7x1AerpyUajclCFU6-68" value="" style="endArrow=none;html=1;rounded=0;strokeWidth=4;fillColor=#647687;strokeColor=#314354;" parent="1" edge="1">
          <mxGeometry width="50" height="50" relative="1" as="geometry">
            <mxPoint x="431.5" y="630" as="sourcePoint" />
            <mxPoint x="431.5" y="598" as="targetPoint" />
          </mxGeometry>
        </mxCell>
        <mxCell id="zht7x1AerpyUajclCFU6-69" value="" style="endArrow=none;html=1;rounded=0;strokeWidth=4;fillColor=#dae8fc;strokeColor=#8800FF;gradientColor=#7ea6e0;curved=0;" parent="1" edge="1">
          <mxGeometry width="50" height="50" relative="1" as="geometry">
            <mxPoint x="435.5" y="630" as="sourcePoint" />
            <mxPoint x="435.5" y="598" as="targetPoint" />
          </mxGeometry>
        </mxCell>
        <mxCell id="zht7x1AerpyUajclCFU6-36" value="" style="endArrow=none;html=1;rounded=0;strokeColor=#000000;strokeWidth=8;" parent="1" edge="1">
          <mxGeometry width="50" height="50" relative="1" as="geometry">
            <mxPoint x="230" y="309" as="sourcePoint" />
            <mxPoint x="230" y="218" as="targetPoint" />
          </mxGeometry>
        </mxCell>
        <mxCell id="qfPaJXmXPzLFPtwU5d0C-2" value="Proxmox node 2&lt;br&gt;Dell 9020&lt;br&gt;i7 Processor&lt;br&gt;32GB DDR3 RAM" style="rounded=0;whiteSpace=wrap;html=1;fillColor=#dae8fc;strokeColor=#6c8ebf;" parent="1" vertex="1">
          <mxGeometry x="480" y="840" width="350" height="200" as="geometry" />
        </mxCell>
        <mxCell id="qfPaJXmXPzLFPtwU5d0C-25" value="" style="endArrow=none;html=1;rounded=0;strokeWidth=4;fillColor=#1ba1e2;strokeColor=#006EAF;" parent="1" edge="1">
          <mxGeometry width="50" height="50" relative="1" as="geometry">
            <mxPoint x="116" y="319" as="sourcePoint" />
            <mxPoint x="116" y="219" as="targetPoint" />
          </mxGeometry>
        </mxCell>
        <mxCell id="qfPaJXmXPzLFPtwU5d0C-26" value="" style="endArrow=none;html=1;rounded=0;strokeWidth=4;fillColor=#6a00ff;strokeColor=#3700CC;" parent="1" edge="1">
          <mxGeometry width="50" height="50" relative="1" as="geometry">
            <mxPoint x="120" y="319" as="sourcePoint" />
            <mxPoint x="120" y="219" as="targetPoint" />
          </mxGeometry>
        </mxCell>
        <mxCell id="qfPaJXmXPzLFPtwU5d0C-27" value="" style="endArrow=none;html=1;rounded=0;strokeWidth=4;fillColor=#fa6800;strokeColor=#C73500;" parent="1" edge="1">
          <mxGeometry width="50" height="50" relative="1" as="geometry">
            <mxPoint x="128" y="319" as="sourcePoint" />
            <mxPoint x="128" y="219" as="targetPoint" />
          </mxGeometry>
        </mxCell>
        <mxCell id="qfPaJXmXPzLFPtwU5d0C-28" value="" style="endArrow=none;html=1;rounded=0;strokeWidth=4;fillColor=#a20025;strokeColor=#6F0000;" parent="1" edge="1">
          <mxGeometry width="50" height="50" relative="1" as="geometry">
            <mxPoint x="124" y="319" as="sourcePoint" />
            <mxPoint x="124" y="219" as="targetPoint" />
          </mxGeometry>
        </mxCell>
        <mxCell id="qfPaJXmXPzLFPtwU5d0C-29" value="" style="endArrow=none;html=1;rounded=0;strokeWidth=4;fillColor=#647687;strokeColor=#314354;" parent="1" edge="1">
          <mxGeometry width="50" height="50" relative="1" as="geometry">
            <mxPoint x="132" y="319" as="sourcePoint" />
            <mxPoint x="132" y="219" as="targetPoint" />
          </mxGeometry>
        </mxCell>
        <mxCell id="qfPaJXmXPzLFPtwU5d0C-30" value="" style="endArrow=none;html=1;rounded=0;strokeWidth=4;fillColor=#dae8fc;strokeColor=#8800FF;gradientColor=#7ea6e0;curved=0;" parent="1" edge="1">
          <mxGeometry width="50" height="50" relative="1" as="geometry">
            <mxPoint x="136" y="319" as="sourcePoint" />
            <mxPoint x="136" y="219" as="targetPoint" />
          </mxGeometry>
        </mxCell>
        <mxCell id="qfPaJXmXPzLFPtwU5d0C-32" value="" style="endArrow=none;html=1;rounded=0;strokeWidth=4;fillColor=#647687;strokeColor=#314354;" parent="1" edge="1">
          <mxGeometry width="50" height="50" relative="1" as="geometry">
            <mxPoint x="552" y="850" as="sourcePoint" />
            <mxPoint x="552" y="750" as="targetPoint" />
          </mxGeometry>
        </mxCell>
        <mxCell id="qfPaJXmXPzLFPtwU5d0C-33" value="" style="endArrow=none;html=1;rounded=0;strokeWidth=4;fillColor=#a20025;strokeColor=#6F0000;" parent="1" edge="1">
          <mxGeometry width="50" height="50" relative="1" as="geometry">
            <mxPoint x="544" y="850" as="sourcePoint" />
            <mxPoint x="544" y="750" as="targetPoint" />
          </mxGeometry>
        </mxCell>
        <mxCell id="qfPaJXmXPzLFPtwU5d0C-34" value="" style="endArrow=none;html=1;rounded=0;strokeWidth=4;fillColor=#fa6800;strokeColor=#C73500;" parent="1" edge="1">
          <mxGeometry width="50" height="50" relative="1" as="geometry">
            <mxPoint x="548" y="850" as="sourcePoint" />
            <mxPoint x="548" y="750" as="targetPoint" />
          </mxGeometry>
        </mxCell>
        <mxCell id="qfPaJXmXPzLFPtwU5d0C-35" value="" style="endArrow=none;html=1;rounded=0;strokeWidth=4;fillColor=#6a00ff;strokeColor=#3700CC;" parent="1" edge="1">
          <mxGeometry width="50" height="50" relative="1" as="geometry">
            <mxPoint x="540" y="850" as="sourcePoint" />
            <mxPoint x="540" y="750" as="targetPoint" />
          </mxGeometry>
        </mxCell>
        <mxCell id="qfPaJXmXPzLFPtwU5d0C-36" value="" style="endArrow=none;html=1;rounded=0;strokeWidth=4;fillColor=#1ba1e2;strokeColor=#006EAF;" parent="1" edge="1">
          <mxGeometry width="50" height="50" relative="1" as="geometry">
            <mxPoint x="536" y="850" as="sourcePoint" />
            <mxPoint x="536" y="750" as="targetPoint" />
          </mxGeometry>
        </mxCell>
        <mxCell id="qfPaJXmXPzLFPtwU5d0C-1" value="Proxmox node 1&lt;br&gt;Dell 9020&lt;br&gt;i7 Processor&lt;br&gt;32GB DDR3 RAM" style="rounded=0;whiteSpace=wrap;html=1;fillColor=#dae8fc;strokeColor=#6c8ebf;" parent="1" vertex="1">
          <mxGeometry x="30" y="309" width="350" height="200" as="geometry" />
        </mxCell>
        <mxCell id="qfPaJXmXPzLFPtwU5d0C-38" value="Trunk" style="rounded=0;whiteSpace=wrap;html=1;" parent="1" vertex="1">
          <mxGeometry x="447" y="765" width="80" height="30" as="geometry" />
        </mxCell>
        <mxCell id="qfPaJXmXPzLFPtwU5d0C-39" value="DNS&lt;br&gt;PiHole" style="rounded=0;whiteSpace=wrap;html=1;fillColor=#e1d5e7;strokeColor=#9673a6;" parent="1" vertex="1">
          <mxGeometry x="245" y="319" width="120" height="60" as="geometry" />
        </mxCell>
        <mxCell id="qfPaJXmXPzLFPtwU5d0C-40" value="WIndows Server" style="rounded=0;whiteSpace=wrap;html=1;fillColor=#e1d5e7;strokeColor=#9673a6;" parent="1" vertex="1">
          <mxGeometry x="45" y="439" width="120" height="60" as="geometry" />
        </mxCell>
        <mxCell id="qfPaJXmXPzLFPtwU5d0C-41" value="Management PC&lt;br&gt;All-In-One" style="rounded=0;whiteSpace=wrap;html=1;fillColor=#dae8fc;strokeColor=#6c8ebf;" parent="1" vertex="1">
          <mxGeometry x="40" y="8" width="120" height="60" as="geometry" />
        </mxCell>
        <mxCell id="qfPaJXmXPzLFPtwU5d0C-42" value="" style="endArrow=none;html=1;rounded=0;strokeWidth=4;fillColor=#1ba1e2;strokeColor=#006EAF;" parent="1" edge="1">
          <mxGeometry width="50" height="50" relative="1" as="geometry">
            <mxPoint x="101" y="99" as="sourcePoint" />
            <mxPoint x="101" y="68" as="targetPoint" />
          </mxGeometry>
        </mxCell>
        <mxCell id="Admnilml3eLxngmovW_U-12" value="DNS&lt;br&gt;PiHole" style="rounded=0;whiteSpace=wrap;html=1;fillColor=#e1d5e7;strokeColor=#9673a6;" parent="1" vertex="1">
          <mxGeometry x="695" y="850" width="120" height="60" as="geometry" />
        </mxCell>
        <mxCell id="Admnilml3eLxngmovW_U-15" value="" style="endArrow=none;html=1;rounded=0;strokeWidth=4;fillColor=#60a917;strokeColor=#2D7600;entryX=0.62;entryY=0.036;entryDx=0;entryDy=0;exitX=0.5;exitY=1;exitDx=0;exitDy=0;entryPerimeter=0;" parent="1" source="Admnilml3eLxngmovW_U-18" target="Admnilml3eLxngmovW_U-11" edge="1">
          <mxGeometry width="50" height="50" relative="1" as="geometry">
            <mxPoint x="450" y="600" as="sourcePoint" />
            <mxPoint x="765" y="255" as="targetPoint" />
            <Array as="points">
              <mxPoint x="570" y="590" />
              <mxPoint x="840" y="590" />
              <mxPoint x="840" y="810" />
              <mxPoint x="570" y="810" />
            </Array>
          </mxGeometry>
        </mxCell>
        <mxCell id="Admnilml3eLxngmovW_U-19" value="" style="endArrow=none;html=1;rounded=0;strokeWidth=4;fillColor=#60a917;strokeColor=#2D7600;entryX=0.16;entryY=0.55;entryDx=0;entryDy=0;exitX=1;exitY=0.5;exitDx=0;exitDy=0;entryPerimeter=0;" parent="1" source="Admnilml3eLxngmovW_U-18" target="Admnilml3eLxngmovW_U-9" edge="1">
          <mxGeometry width="50" height="50" relative="1" as="geometry">
            <mxPoint x="505" y="430" as="sourcePoint" />
            <mxPoint x="765" y="255" as="targetPoint" />
          </mxGeometry>
        </mxCell>
        <mxCell id="Admnilml3eLxngmovW_U-20" value="&lt;br&gt;" style="edgeLabel;html=1;align=center;verticalAlign=middle;resizable=0;points=[];" parent="Admnilml3eLxngmovW_U-19" vertex="1" connectable="0">
          <mxGeometry x="-0.2072" y="1" relative="1" as="geometry">
            <mxPoint as="offset" />
          </mxGeometry>
        </mxCell>
        <mxCell id="jtsnbPvc71L-MB60aJkz-1" value="&lt;div style=&quot;text-align: center;&quot;&gt;&lt;font style=&quot;font-size: 21px;&quot;&gt;Devices needed:&lt;/font&gt;&lt;/div&gt;&lt;ul style=&quot;font-size: 14px;&quot;&gt;&lt;li&gt;3 managed switches. Preferably Gigabit and Cisco&lt;/li&gt;&lt;li&gt;2 access points for WiFi connectivity&lt;/li&gt;&lt;li&gt;1 router. Simulates the WAN so there is not extra traffic on ODU&#39;s network&lt;/li&gt;&lt;li&gt;2 NICs (Network Interface Cards)&lt;/li&gt;&lt;li&gt;Ethernet cables to connect devices together&lt;/li&gt;&lt;li&gt;Power cables for aforementioned devices (switches and routers)&lt;/li&gt;&lt;li&gt;Power Distribution Unit (PDU) to power all the devices&lt;/li&gt;&lt;li&gt;Connection to the Internet (through ODU&#39;s network)&lt;/li&gt;&lt;/ul&gt;" style="rounded=0;whiteSpace=wrap;html=1;align=left;" parent="1" vertex="1">
          <mxGeometry x="40" y="790" width="395" height="250" as="geometry" />
        </mxCell>
        <mxCell id="qfPaJXmXPzLFPtwU5d0C-37" value="Trunk" style="rounded=0;whiteSpace=wrap;html=1;" parent="1" vertex="1">
          <mxGeometry x="30" y="250" width="80" height="30" as="geometry" />
        </mxCell>
        <mxCell id="zht7x1AerpyUajclCFU6-19" value="" style="endArrow=none;html=1;rounded=0;strokeColor=#000000;strokeWidth=4;" parent="1" edge="1">
          <mxGeometry width="50" height="50" relative="1" as="geometry">
            <mxPoint x="530" y="449" as="sourcePoint" />
            <mxPoint x="530" y="370" as="targetPoint" />
          </mxGeometry>
        </mxCell>
        <mxCell id="Admnilml3eLxngmovW_U-13" value="" style="endArrow=none;html=1;rounded=0;strokeWidth=4;fillColor=#60a917;strokeColor=#2D7600;exitX=0.75;exitY=0;exitDx=0;exitDy=0;entryX=0.862;entryY=0.017;entryDx=0;entryDy=0;entryPerimeter=0;" parent="1" source="Admnilml3eLxngmovW_U-18" target="qfPaJXmXPzLFPtwU5d0C-6" edge="1">
          <mxGeometry width="50" height="50" relative="1" as="geometry">
            <mxPoint x="590" y="360" as="sourcePoint" />
            <mxPoint x="330" y="290" as="targetPoint" />
            <Array as="points">
              <mxPoint x="600" y="230" />
              <mxPoint x="150" y="230" />
            </Array>
          </mxGeometry>
        </mxCell>
        <mxCell id="Admnilml3eLxngmovW_U-16" value="&lt;br&gt;" style="edgeLabel;html=1;align=center;verticalAlign=middle;resizable=0;points=[];" parent="Admnilml3eLxngmovW_U-13" vertex="1" connectable="0">
          <mxGeometry x="-0.2072" y="1" relative="1" as="geometry">
            <mxPoint as="offset" />
          </mxGeometry>
        </mxCell>
        <mxCell id="Admnilml3eLxngmovW_U-10" value="" style="endArrow=none;html=1;rounded=0;strokeWidth=4;fillColor=#60a917;strokeColor=#8800FF;" parent="1" edge="1">
          <mxGeometry width="50" height="50" relative="1" as="geometry">
            <mxPoint x="556" y="850" as="sourcePoint" />
            <mxPoint x="556" y="750" as="targetPoint" />
          </mxGeometry>
        </mxCell>
        <mxCell id="Admnilml3eLxngmovW_U-11" value="Firewall&lt;br&gt;OPNsense&lt;br&gt;5 VLANS" style="rounded=0;whiteSpace=wrap;html=1;fillColor=#f8cecc;strokeColor=#b85450;" parent="1" vertex="1">
          <mxGeometry x="495" y="850" width="120" height="60" as="geometry" />
        </mxCell>
        <mxCell id="qfPaJXmXPzLFPtwU5d0C-6" value="Firewall&lt;br&gt;OPNsense&lt;br&gt;5 VLANS" style="rounded=0;whiteSpace=wrap;html=1;fillColor=#f8cecc;strokeColor=#b85450;" parent="1" vertex="1">
          <mxGeometry x="45" y="319" width="120" height="60" as="geometry" />
        </mxCell>
        <mxCell id="Admnilml3eLxngmovW_U-9" value="&lt;font style=&quot;font-size: 32px;&quot;&gt;Internet&lt;/font&gt;" style="ellipse;shape=cloud;whiteSpace=wrap;html=1;fillColor=#d5e8d4;strokeColor=#82b366;" parent="1" vertex="1">
          <mxGeometry x="630" y="397" width="210" height="150" as="geometry" />
        </mxCell>
        <mxCell id="Admnilml3eLxngmovW_U-18" value="Router" style="rounded=0;whiteSpace=wrap;html=1;fillColor=#d5e8d4;strokeColor=#82b366;" parent="1" vertex="1">
          <mxGeometry x="510" y="449" width="120" height="60" as="geometry" />
        </mxCell>
        <mxCell id="zht7x1AerpyUajclCFU6-12" value="Managed Switch&lt;br&gt;Cisco" style="rounded=0;whiteSpace=wrap;html=1;fillColor=#dae8fc;strokeColor=default;container=0;" parent="1" vertex="1">
          <mxGeometry x="435" y="280" width="145" height="90" as="geometry" />
        </mxCell>
        <mxCell id="zht7x1AerpyUajclCFU6-37" value="" style="endArrow=none;html=1;rounded=0;strokeColor=#000000;strokeWidth=8;entryX=0.25;entryY=1;entryDx=0;entryDy=0;" parent="1" edge="1">
          <mxGeometry width="50" height="50" relative="1" as="geometry">
            <mxPoint x="640" y="840" as="sourcePoint" />
            <mxPoint x="640" y="750" as="targetPoint" />
          </mxGeometry>
        </mxCell>
        <mxCell id="zht7x1AerpyUajclCFU6-38" value="" style="group" parent="1" vertex="1" connectable="0">
          <mxGeometry x="30" y="99" width="680" height="120" as="geometry" />
        </mxCell>
        <mxCell id="qfPaJXmXPzLFPtwU5d0C-4" value="&lt;br&gt;&lt;br&gt;&lt;br&gt;&lt;br&gt;&lt;br&gt;Managed Switch&lt;br&gt;Cisco" style="rounded=0;whiteSpace=wrap;html=1;fillColor=#dae8fc;strokeColor=default;" parent="zht7x1AerpyUajclCFU6-38" vertex="1">
          <mxGeometry width="680" height="120" as="geometry" />
        </mxCell>
        <mxCell id="qfPaJXmXPzLFPtwU5d0C-5" value="VLAN 1&lt;br&gt;Management&lt;br&gt;192.168.10.0/24" style="rounded=0;whiteSpace=wrap;html=1;fillColor=#1ba1e2;fontColor=#ffffff;strokeColor=#006EAF;" parent="zht7x1AerpyUajclCFU6-38" vertex="1">
          <mxGeometry x="10" y="10" width="100" height="60" as="geometry" />
        </mxCell>
        <mxCell id="qfPaJXmXPzLFPtwU5d0C-7" value="VLAN 2&lt;br&gt;IT&lt;br&gt;192.168.12.0/24" style="rounded=0;whiteSpace=wrap;html=1;fillColor=#6a00ff;fontColor=#ffffff;strokeColor=#3700CC;" parent="zht7x1AerpyUajclCFU6-38" vertex="1">
          <mxGeometry x="120" y="10" width="100" height="60" as="geometry" />
        </mxCell>
        <mxCell id="qfPaJXmXPzLFPtwU5d0C-8" value="VLAN 3&lt;br&gt;Marketing&lt;br&gt;192.168.13.0/24" style="rounded=0;whiteSpace=wrap;html=1;fillColor=#a20025;fontColor=#ffffff;strokeColor=#6F0000;" parent="zht7x1AerpyUajclCFU6-38" vertex="1">
          <mxGeometry x="230" y="10" width="100" height="60" as="geometry" />
        </mxCell>
        <mxCell id="qfPaJXmXPzLFPtwU5d0C-9" value="VLAN 4&lt;br&gt;Engineering&lt;br&gt;192.168.14.0/24" style="rounded=0;whiteSpace=wrap;html=1;fillColor=#fa6800;fontColor=#000000;strokeColor=#C73500;" parent="zht7x1AerpyUajclCFU6-38" vertex="1">
          <mxGeometry x="340" y="10" width="100" height="60" as="geometry" />
        </mxCell>
        <mxCell id="qfPaJXmXPzLFPtwU5d0C-10" value="VLAN 5&lt;br&gt;Security&lt;br&gt;192.168.15.0/24" style="rounded=0;whiteSpace=wrap;html=1;fillColor=#647687;fontColor=#ffffff;strokeColor=#314354;" parent="zht7x1AerpyUajclCFU6-38" vertex="1">
          <mxGeometry x="450" y="10" width="100" height="60" as="geometry" />
        </mxCell>
        <mxCell id="zht7x1AerpyUajclCFU6-28" value="VLAN 6&lt;br&gt;Human Resources&lt;br&gt;192.168.16.0/24" style="rounded=0;whiteSpace=wrap;html=1;fillColor=#8800FF;strokeColor=#6c8ebf;gradientColor=none;" parent="zht7x1AerpyUajclCFU6-38" vertex="1">
          <mxGeometry x="560" y="10" width="100" height="60" as="geometry" />
        </mxCell>
        <mxCell id="zht7x1AerpyUajclCFU6-39" value="" style="group" parent="1" vertex="1" connectable="0">
          <mxGeometry x="30" y="630" width="690" height="120" as="geometry" />
        </mxCell>
        <mxCell id="Admnilml3eLxngmovW_U-2" value="&lt;br&gt;&lt;br&gt;&lt;br&gt;&lt;br&gt;&lt;br&gt;Managed Switch&lt;br&gt;Cisco" style="rounded=0;whiteSpace=wrap;html=1;fillColor=#dae8fc;strokeColor=default;" parent="zht7x1AerpyUajclCFU6-39" vertex="1">
          <mxGeometry width="690" height="120" as="geometry" />
        </mxCell>
        <mxCell id="zht7x1AerpyUajclCFU6-29" value="VLAN 1&lt;br&gt;Management&lt;br&gt;192.168.20.0/24" style="rounded=0;whiteSpace=wrap;html=1;fillColor=#1ba1e2;fontColor=#ffffff;strokeColor=#006EAF;" parent="zht7x1AerpyUajclCFU6-39" vertex="1">
          <mxGeometry x="20" y="10" width="100" height="60" as="geometry" />
        </mxCell>
        <mxCell id="zht7x1AerpyUajclCFU6-30" value="VLAN 2&lt;br&gt;IT&lt;br&gt;192.168.22.0/24" style="rounded=0;whiteSpace=wrap;html=1;fillColor=#6a00ff;fontColor=#ffffff;strokeColor=#3700CC;" parent="zht7x1AerpyUajclCFU6-39" vertex="1">
          <mxGeometry x="130" y="10" width="100" height="60" as="geometry" />
        </mxCell>
        <mxCell id="zht7x1AerpyUajclCFU6-31" value="VLAN 3&lt;br&gt;Marketing&lt;br&gt;192.168.23.0/24" style="rounded=0;whiteSpace=wrap;html=1;fillColor=#a20025;fontColor=#ffffff;strokeColor=#6F0000;" parent="zht7x1AerpyUajclCFU6-39" vertex="1">
          <mxGeometry x="240" y="10" width="100" height="60" as="geometry" />
        </mxCell>
        <mxCell id="zht7x1AerpyUajclCFU6-32" value="VLAN 4&lt;br&gt;Engineering&lt;br&gt;192.168.24.0/24" style="rounded=0;whiteSpace=wrap;html=1;fillColor=#fa6800;fontColor=#000000;strokeColor=#C73500;" parent="zht7x1AerpyUajclCFU6-39" vertex="1">
          <mxGeometry x="350" y="10" width="100" height="60" as="geometry" />
        </mxCell>
        <mxCell id="zht7x1AerpyUajclCFU6-33" value="VLAN 5&lt;br&gt;Security&lt;br&gt;192.168.25.0/24" style="rounded=0;whiteSpace=wrap;html=1;fillColor=#647687;fontColor=#ffffff;strokeColor=#314354;" parent="zht7x1AerpyUajclCFU6-39" vertex="1">
          <mxGeometry x="460" y="10" width="100" height="60" as="geometry" />
        </mxCell>
        <mxCell id="zht7x1AerpyUajclCFU6-35" value="VLAN 6&lt;br&gt;Human Resources&lt;br&gt;192.168.26.0/24" style="rounded=0;whiteSpace=wrap;html=1;fillColor=#8800FF;strokeColor=#b46504;" parent="zht7x1AerpyUajclCFU6-39" vertex="1">
          <mxGeometry x="570" y="10" width="100" height="60" as="geometry" />
        </mxCell>
        <mxCell id="zht7x1AerpyUajclCFU6-59" value="Access Point" style="rounded=0;whiteSpace=wrap;html=1;fillColor=#dae8fc;strokeColor=#6c8ebf;" parent="1" vertex="1">
          <mxGeometry x="200" y="8" width="130" height="59.5" as="geometry" />
        </mxCell>
        <mxCell id="zht7x1AerpyUajclCFU6-62" value="Trunk" style="rounded=0;whiteSpace=wrap;html=1;" parent="1" vertex="1">
          <mxGeometry x="280.5" y="73" width="55" height="21" as="geometry" />
        </mxCell>
        <mxCell id="zht7x1AerpyUajclCFU6-70" value="Access Point" style="rounded=0;whiteSpace=wrap;html=1;fillColor=#dae8fc;strokeColor=#6c8ebf;" parent="1" vertex="1">
          <mxGeometry x="359.5" y="539" width="130" height="59.5" as="geometry" />
        </mxCell>
        <mxCell id="zht7x1AerpyUajclCFU6-71" value="Trunk" style="rounded=0;whiteSpace=wrap;html=1;" parent="1" vertex="1">
          <mxGeometry x="440" y="604" width="55" height="21" as="geometry" />
        </mxCell>
      </root>
    </mxGraphModel>
  </diagram>
  <diagram id="a4pM_YArJea6Vhn7Lbni" name="PENG Corp">
    <mxGraphModel dx="1434" dy="780" grid="1" gridSize="10" guides="1" tooltips="1" connect="1" arrows="1" fold="1" page="1" pageScale="1" pageWidth="850" pageHeight="1100" math="0" shadow="0">
      <root>
        <mxCell id="0" />
        <mxCell id="1" parent="0" />
        <mxCell id="nTDZ54IMMot18IEP4yEc-1" value="" style="endArrow=none;html=1;rounded=0;strokeWidth=4;fillColor=#1ba1e2;strokeColor=#006EAF;" edge="1" parent="1">
          <mxGeometry width="50" height="50" relative="1" as="geometry">
            <mxPoint x="246" y="121" as="sourcePoint" />
            <mxPoint x="246" y="89" as="targetPoint" />
          </mxGeometry>
        </mxCell>
        <mxCell id="nTDZ54IMMot18IEP4yEc-2" value="" style="endArrow=none;html=1;rounded=0;strokeWidth=4;fillColor=#6a00ff;strokeColor=#3700CC;" edge="1" parent="1">
          <mxGeometry width="50" height="50" relative="1" as="geometry">
            <mxPoint x="250" y="121" as="sourcePoint" />
            <mxPoint x="250" y="89" as="targetPoint" />
          </mxGeometry>
        </mxCell>
        <mxCell id="nTDZ54IMMot18IEP4yEc-3" value="" style="endArrow=none;html=1;rounded=0;strokeWidth=4;fillColor=#fa6800;strokeColor=#C73500;" edge="1" parent="1">
          <mxGeometry width="50" height="50" relative="1" as="geometry">
            <mxPoint x="258" y="121" as="sourcePoint" />
            <mxPoint x="258" y="89" as="targetPoint" />
          </mxGeometry>
        </mxCell>
        <mxCell id="nTDZ54IMMot18IEP4yEc-4" value="" style="endArrow=none;html=1;rounded=0;strokeWidth=4;fillColor=#a20025;strokeColor=#6F0000;" edge="1" parent="1">
          <mxGeometry width="50" height="50" relative="1" as="geometry">
            <mxPoint x="254" y="121" as="sourcePoint" />
            <mxPoint x="254" y="89" as="targetPoint" />
          </mxGeometry>
        </mxCell>
        <mxCell id="nTDZ54IMMot18IEP4yEc-5" value="" style="endArrow=none;html=1;rounded=0;strokeWidth=4;fillColor=#647687;strokeColor=#314354;" edge="1" parent="1">
          <mxGeometry width="50" height="50" relative="1" as="geometry">
            <mxPoint x="262" y="121" as="sourcePoint" />
            <mxPoint x="262" y="89" as="targetPoint" />
          </mxGeometry>
        </mxCell>
        <mxCell id="nTDZ54IMMot18IEP4yEc-6" value="" style="endArrow=none;html=1;rounded=0;strokeWidth=4;fillColor=#dae8fc;strokeColor=#8800FF;gradientColor=#7ea6e0;curved=0;" edge="1" parent="1">
          <mxGeometry width="50" height="50" relative="1" as="geometry">
            <mxPoint x="266" y="121" as="sourcePoint" />
            <mxPoint x="266" y="89" as="targetPoint" />
          </mxGeometry>
        </mxCell>
        <mxCell id="nTDZ54IMMot18IEP4yEc-7" value="" style="endArrow=none;html=1;rounded=0;strokeWidth=4;fillColor=#1ba1e2;strokeColor=#006EAF;" edge="1" parent="1">
          <mxGeometry width="50" height="50" relative="1" as="geometry">
            <mxPoint x="405.5" y="652" as="sourcePoint" />
            <mxPoint x="405.5" y="620" as="targetPoint" />
          </mxGeometry>
        </mxCell>
        <mxCell id="nTDZ54IMMot18IEP4yEc-8" value="" style="endArrow=none;html=1;rounded=0;strokeWidth=4;fillColor=#6a00ff;strokeColor=#3700CC;" edge="1" parent="1">
          <mxGeometry width="50" height="50" relative="1" as="geometry">
            <mxPoint x="409.5" y="652" as="sourcePoint" />
            <mxPoint x="409.5" y="620" as="targetPoint" />
          </mxGeometry>
        </mxCell>
        <mxCell id="nTDZ54IMMot18IEP4yEc-9" value="" style="endArrow=none;html=1;rounded=0;strokeWidth=4;fillColor=#fa6800;strokeColor=#C73500;" edge="1" parent="1">
          <mxGeometry width="50" height="50" relative="1" as="geometry">
            <mxPoint x="417.5" y="652" as="sourcePoint" />
            <mxPoint x="417.5" y="620" as="targetPoint" />
          </mxGeometry>
        </mxCell>
        <mxCell id="nTDZ54IMMot18IEP4yEc-10" value="" style="endArrow=none;html=1;rounded=0;strokeWidth=4;fillColor=#a20025;strokeColor=#6F0000;" edge="1" parent="1">
          <mxGeometry width="50" height="50" relative="1" as="geometry">
            <mxPoint x="413.5" y="652" as="sourcePoint" />
            <mxPoint x="413.5" y="620" as="targetPoint" />
          </mxGeometry>
        </mxCell>
        <mxCell id="nTDZ54IMMot18IEP4yEc-11" value="" style="endArrow=none;html=1;rounded=0;strokeWidth=4;fillColor=#647687;strokeColor=#314354;" edge="1" parent="1">
          <mxGeometry width="50" height="50" relative="1" as="geometry">
            <mxPoint x="421.5" y="652" as="sourcePoint" />
            <mxPoint x="421.5" y="620" as="targetPoint" />
          </mxGeometry>
        </mxCell>
        <mxCell id="nTDZ54IMMot18IEP4yEc-12" value="" style="endArrow=none;html=1;rounded=0;strokeWidth=4;fillColor=#dae8fc;strokeColor=#8800FF;gradientColor=#7ea6e0;curved=0;" edge="1" parent="1">
          <mxGeometry width="50" height="50" relative="1" as="geometry">
            <mxPoint x="425.5" y="652" as="sourcePoint" />
            <mxPoint x="425.5" y="620" as="targetPoint" />
          </mxGeometry>
        </mxCell>
        <mxCell id="nTDZ54IMMot18IEP4yEc-13" value="" style="endArrow=none;html=1;rounded=0;strokeColor=#000000;strokeWidth=8;" edge="1" parent="1">
          <mxGeometry width="50" height="50" relative="1" as="geometry">
            <mxPoint x="220" y="331" as="sourcePoint" />
            <mxPoint x="220" y="240" as="targetPoint" />
          </mxGeometry>
        </mxCell>
        <mxCell id="nTDZ54IMMot18IEP4yEc-14" value="Proxmox node 2" style="rounded=0;whiteSpace=wrap;html=1;fillColor=#dae8fc;strokeColor=#6c8ebf;" vertex="1" parent="1">
          <mxGeometry x="470" y="862" width="350" height="200" as="geometry" />
        </mxCell>
        <mxCell id="nTDZ54IMMot18IEP4yEc-15" value="" style="endArrow=none;html=1;rounded=0;strokeWidth=4;fillColor=#1ba1e2;strokeColor=#006EAF;" edge="1" parent="1">
          <mxGeometry width="50" height="50" relative="1" as="geometry">
            <mxPoint x="106" y="341" as="sourcePoint" />
            <mxPoint x="106" y="241" as="targetPoint" />
          </mxGeometry>
        </mxCell>
        <mxCell id="nTDZ54IMMot18IEP4yEc-16" value="" style="endArrow=none;html=1;rounded=0;strokeWidth=4;fillColor=#6a00ff;strokeColor=#3700CC;" edge="1" parent="1">
          <mxGeometry width="50" height="50" relative="1" as="geometry">
            <mxPoint x="110" y="341" as="sourcePoint" />
            <mxPoint x="110" y="241" as="targetPoint" />
          </mxGeometry>
        </mxCell>
        <mxCell id="nTDZ54IMMot18IEP4yEc-17" value="" style="endArrow=none;html=1;rounded=0;strokeWidth=4;fillColor=#fa6800;strokeColor=#C73500;" edge="1" parent="1">
          <mxGeometry width="50" height="50" relative="1" as="geometry">
            <mxPoint x="118" y="341" as="sourcePoint" />
            <mxPoint x="118" y="241" as="targetPoint" />
          </mxGeometry>
        </mxCell>
        <mxCell id="nTDZ54IMMot18IEP4yEc-18" value="" style="endArrow=none;html=1;rounded=0;strokeWidth=4;fillColor=#a20025;strokeColor=#6F0000;" edge="1" parent="1">
          <mxGeometry width="50" height="50" relative="1" as="geometry">
            <mxPoint x="114" y="341" as="sourcePoint" />
            <mxPoint x="114" y="241" as="targetPoint" />
          </mxGeometry>
        </mxCell>
        <mxCell id="nTDZ54IMMot18IEP4yEc-19" value="" style="endArrow=none;html=1;rounded=0;strokeWidth=4;fillColor=#647687;strokeColor=#314354;" edge="1" parent="1">
          <mxGeometry width="50" height="50" relative="1" as="geometry">
            <mxPoint x="122" y="341" as="sourcePoint" />
            <mxPoint x="122" y="241" as="targetPoint" />
          </mxGeometry>
        </mxCell>
        <mxCell id="nTDZ54IMMot18IEP4yEc-20" value="" style="endArrow=none;html=1;rounded=0;strokeWidth=4;fillColor=#dae8fc;strokeColor=#8800FF;gradientColor=#7ea6e0;curved=0;" edge="1" parent="1">
          <mxGeometry width="50" height="50" relative="1" as="geometry">
            <mxPoint x="126" y="341" as="sourcePoint" />
            <mxPoint x="126" y="241" as="targetPoint" />
          </mxGeometry>
        </mxCell>
        <mxCell id="nTDZ54IMMot18IEP4yEc-21" value="" style="endArrow=none;html=1;rounded=0;strokeWidth=4;fillColor=#647687;strokeColor=#314354;" edge="1" parent="1">
          <mxGeometry width="50" height="50" relative="1" as="geometry">
            <mxPoint x="542" y="872" as="sourcePoint" />
            <mxPoint x="542" y="772" as="targetPoint" />
          </mxGeometry>
        </mxCell>
        <mxCell id="nTDZ54IMMot18IEP4yEc-22" value="" style="endArrow=none;html=1;rounded=0;strokeWidth=4;fillColor=#a20025;strokeColor=#6F0000;" edge="1" parent="1">
          <mxGeometry width="50" height="50" relative="1" as="geometry">
            <mxPoint x="534" y="872" as="sourcePoint" />
            <mxPoint x="534" y="772" as="targetPoint" />
          </mxGeometry>
        </mxCell>
        <mxCell id="nTDZ54IMMot18IEP4yEc-23" value="" style="endArrow=none;html=1;rounded=0;strokeWidth=4;fillColor=#fa6800;strokeColor=#C73500;" edge="1" parent="1">
          <mxGeometry width="50" height="50" relative="1" as="geometry">
            <mxPoint x="538" y="872" as="sourcePoint" />
            <mxPoint x="538" y="772" as="targetPoint" />
          </mxGeometry>
        </mxCell>
        <mxCell id="nTDZ54IMMot18IEP4yEc-24" value="" style="endArrow=none;html=1;rounded=0;strokeWidth=4;fillColor=#6a00ff;strokeColor=#3700CC;" edge="1" parent="1">
          <mxGeometry width="50" height="50" relative="1" as="geometry">
            <mxPoint x="530" y="872" as="sourcePoint" />
            <mxPoint x="530" y="772" as="targetPoint" />
          </mxGeometry>
        </mxCell>
        <mxCell id="nTDZ54IMMot18IEP4yEc-25" value="" style="endArrow=none;html=1;rounded=0;strokeWidth=4;fillColor=#1ba1e2;strokeColor=#006EAF;" edge="1" parent="1">
          <mxGeometry width="50" height="50" relative="1" as="geometry">
            <mxPoint x="526" y="872" as="sourcePoint" />
            <mxPoint x="526" y="772" as="targetPoint" />
          </mxGeometry>
        </mxCell>
        <mxCell id="nTDZ54IMMot18IEP4yEc-26" value="Proxmox node 1" style="rounded=0;whiteSpace=wrap;html=1;fillColor=#dae8fc;strokeColor=#6c8ebf;" vertex="1" parent="1">
          <mxGeometry x="20" y="331" width="350" height="200" as="geometry" />
        </mxCell>
        <mxCell id="nTDZ54IMMot18IEP4yEc-27" value="Trunk" style="rounded=0;whiteSpace=wrap;html=1;" vertex="1" parent="1">
          <mxGeometry x="437" y="787" width="80" height="30" as="geometry" />
        </mxCell>
        <mxCell id="nTDZ54IMMot18IEP4yEc-28" value="DNS&lt;br&gt;PiHole" style="rounded=0;whiteSpace=wrap;html=1;fillColor=#e1d5e7;strokeColor=#9673a6;" vertex="1" parent="1">
          <mxGeometry x="235" y="341" width="120" height="60" as="geometry" />
        </mxCell>
        <mxCell id="nTDZ54IMMot18IEP4yEc-29" value="WIndows Server" style="rounded=0;whiteSpace=wrap;html=1;fillColor=#e1d5e7;strokeColor=#9673a6;" vertex="1" parent="1">
          <mxGeometry x="35" y="461" width="120" height="60" as="geometry" />
        </mxCell>
        <mxCell id="nTDZ54IMMot18IEP4yEc-32" value="DNS&lt;br&gt;PiHole" style="rounded=0;whiteSpace=wrap;html=1;fillColor=#e1d5e7;strokeColor=#9673a6;" vertex="1" parent="1">
          <mxGeometry x="685" y="872" width="120" height="60" as="geometry" />
        </mxCell>
        <mxCell id="nTDZ54IMMot18IEP4yEc-33" value="" style="endArrow=none;html=1;rounded=0;strokeWidth=4;fillColor=#60a917;strokeColor=#2D7600;entryX=0.62;entryY=0.036;entryDx=0;entryDy=0;exitX=0.5;exitY=1;exitDx=0;exitDy=0;entryPerimeter=0;" edge="1" parent="1" source="nTDZ54IMMot18IEP4yEc-45" target="nTDZ54IMMot18IEP4yEc-42">
          <mxGeometry width="50" height="50" relative="1" as="geometry">
            <mxPoint x="440" y="622" as="sourcePoint" />
            <mxPoint x="755" y="277" as="targetPoint" />
            <Array as="points">
              <mxPoint x="560" y="612" />
              <mxPoint x="830" y="612" />
              <mxPoint x="830" y="832" />
              <mxPoint x="560" y="832" />
            </Array>
          </mxGeometry>
        </mxCell>
        <mxCell id="nTDZ54IMMot18IEP4yEc-34" value="" style="endArrow=none;html=1;rounded=0;strokeWidth=4;fillColor=#60a917;strokeColor=#2D7600;entryX=0.16;entryY=0.55;entryDx=0;entryDy=0;exitX=1;exitY=0.5;exitDx=0;exitDy=0;entryPerimeter=0;" edge="1" parent="1" source="nTDZ54IMMot18IEP4yEc-45" target="nTDZ54IMMot18IEP4yEc-44">
          <mxGeometry width="50" height="50" relative="1" as="geometry">
            <mxPoint x="495" y="452" as="sourcePoint" />
            <mxPoint x="755" y="277" as="targetPoint" />
          </mxGeometry>
        </mxCell>
        <mxCell id="nTDZ54IMMot18IEP4yEc-35" value="&lt;br&gt;" style="edgeLabel;html=1;align=center;verticalAlign=middle;resizable=0;points=[];" vertex="1" connectable="0" parent="nTDZ54IMMot18IEP4yEc-34">
          <mxGeometry x="-0.2072" y="1" relative="1" as="geometry">
            <mxPoint as="offset" />
          </mxGeometry>
        </mxCell>
        <mxCell id="nTDZ54IMMot18IEP4yEc-37" value="Trunk" style="rounded=0;whiteSpace=wrap;html=1;" vertex="1" parent="1">
          <mxGeometry x="20" y="272" width="80" height="30" as="geometry" />
        </mxCell>
        <mxCell id="nTDZ54IMMot18IEP4yEc-38" value="" style="endArrow=none;html=1;rounded=0;strokeColor=#000000;strokeWidth=4;" edge="1" parent="1">
          <mxGeometry width="50" height="50" relative="1" as="geometry">
            <mxPoint x="520" y="471" as="sourcePoint" />
            <mxPoint x="520" y="392" as="targetPoint" />
          </mxGeometry>
        </mxCell>
        <mxCell id="nTDZ54IMMot18IEP4yEc-39" value="" style="endArrow=none;html=1;rounded=0;strokeWidth=4;fillColor=#60a917;strokeColor=#2D7600;exitX=0.75;exitY=0;exitDx=0;exitDy=0;entryX=0.862;entryY=0.017;entryDx=0;entryDy=0;entryPerimeter=0;" edge="1" parent="1" source="nTDZ54IMMot18IEP4yEc-45" target="nTDZ54IMMot18IEP4yEc-43">
          <mxGeometry width="50" height="50" relative="1" as="geometry">
            <mxPoint x="580" y="382" as="sourcePoint" />
            <mxPoint x="320" y="312" as="targetPoint" />
            <Array as="points">
              <mxPoint x="590" y="252" />
              <mxPoint x="140" y="252" />
            </Array>
          </mxGeometry>
        </mxCell>
        <mxCell id="nTDZ54IMMot18IEP4yEc-40" value="&lt;br&gt;" style="edgeLabel;html=1;align=center;verticalAlign=middle;resizable=0;points=[];" vertex="1" connectable="0" parent="nTDZ54IMMot18IEP4yEc-39">
          <mxGeometry x="-0.2072" y="1" relative="1" as="geometry">
            <mxPoint as="offset" />
          </mxGeometry>
        </mxCell>
        <mxCell id="nTDZ54IMMot18IEP4yEc-41" value="" style="endArrow=none;html=1;rounded=0;strokeWidth=4;fillColor=#60a917;strokeColor=#8800FF;" edge="1" parent="1">
          <mxGeometry width="50" height="50" relative="1" as="geometry">
            <mxPoint x="546" y="872" as="sourcePoint" />
            <mxPoint x="546" y="772" as="targetPoint" />
          </mxGeometry>
        </mxCell>
        <mxCell id="nTDZ54IMMot18IEP4yEc-42" value="Firewall&lt;br&gt;OPNsense&lt;br&gt;5 VLANS" style="rounded=0;whiteSpace=wrap;html=1;fillColor=#f8cecc;strokeColor=#b85450;" vertex="1" parent="1">
          <mxGeometry x="485" y="872" width="120" height="60" as="geometry" />
        </mxCell>
        <mxCell id="nTDZ54IMMot18IEP4yEc-43" value="Firewall&lt;br&gt;OPNsense&lt;br&gt;5 VLANS" style="rounded=0;whiteSpace=wrap;html=1;fillColor=#f8cecc;strokeColor=#b85450;" vertex="1" parent="1">
          <mxGeometry x="35" y="341" width="120" height="60" as="geometry" />
        </mxCell>
        <mxCell id="nTDZ54IMMot18IEP4yEc-44" value="&lt;font style=&quot;font-size: 32px;&quot;&gt;Internet&lt;/font&gt;" style="ellipse;shape=cloud;whiteSpace=wrap;html=1;fillColor=#d5e8d4;strokeColor=#82b366;" vertex="1" parent="1">
          <mxGeometry x="620" y="419" width="210" height="150" as="geometry" />
        </mxCell>
        <mxCell id="nTDZ54IMMot18IEP4yEc-45" value="Router" style="rounded=0;whiteSpace=wrap;html=1;fillColor=#d5e8d4;strokeColor=#82b366;" vertex="1" parent="1">
          <mxGeometry x="500" y="471" width="120" height="60" as="geometry" />
        </mxCell>
        <mxCell id="nTDZ54IMMot18IEP4yEc-46" value="Managed Switch&lt;br&gt;Cisco" style="rounded=0;whiteSpace=wrap;html=1;fillColor=#dae8fc;strokeColor=default;container=0;" vertex="1" parent="1">
          <mxGeometry x="425" y="302" width="145" height="90" as="geometry" />
        </mxCell>
        <mxCell id="nTDZ54IMMot18IEP4yEc-47" value="" style="endArrow=none;html=1;rounded=0;strokeColor=#000000;strokeWidth=8;entryX=0.25;entryY=1;entryDx=0;entryDy=0;" edge="1" parent="1">
          <mxGeometry width="50" height="50" relative="1" as="geometry">
            <mxPoint x="630" y="862" as="sourcePoint" />
            <mxPoint x="630" y="772" as="targetPoint" />
          </mxGeometry>
        </mxCell>
        <mxCell id="nTDZ54IMMot18IEP4yEc-48" value="" style="group" vertex="1" connectable="0" parent="1">
          <mxGeometry x="20" y="121" width="680" height="120" as="geometry" />
        </mxCell>
        <mxCell id="nTDZ54IMMot18IEP4yEc-49" value="&lt;br&gt;&lt;br&gt;&lt;br&gt;&lt;br&gt;&lt;br&gt;Managed Switch&lt;br&gt;Cisco" style="rounded=0;whiteSpace=wrap;html=1;fillColor=#dae8fc;strokeColor=default;" vertex="1" parent="nTDZ54IMMot18IEP4yEc-48">
          <mxGeometry width="680" height="120" as="geometry" />
        </mxCell>
        <mxCell id="nTDZ54IMMot18IEP4yEc-50" value="VLAN 1&lt;br&gt;Management&lt;br&gt;192.168.10.0/24" style="rounded=0;whiteSpace=wrap;html=1;fillColor=#1ba1e2;fontColor=#ffffff;strokeColor=#006EAF;" vertex="1" parent="nTDZ54IMMot18IEP4yEc-48">
          <mxGeometry x="10" y="10" width="100" height="60" as="geometry" />
        </mxCell>
        <mxCell id="nTDZ54IMMot18IEP4yEc-51" value="VLAN 2&lt;br&gt;IT&lt;br&gt;192.168.12.0/24" style="rounded=0;whiteSpace=wrap;html=1;fillColor=#6a00ff;fontColor=#ffffff;strokeColor=#3700CC;" vertex="1" parent="nTDZ54IMMot18IEP4yEc-48">
          <mxGeometry x="120" y="10" width="100" height="60" as="geometry" />
        </mxCell>
        <mxCell id="nTDZ54IMMot18IEP4yEc-52" value="VLAN 3&lt;br&gt;Marketing&lt;br&gt;192.168.13.0/24" style="rounded=0;whiteSpace=wrap;html=1;fillColor=#a20025;fontColor=#ffffff;strokeColor=#6F0000;" vertex="1" parent="nTDZ54IMMot18IEP4yEc-48">
          <mxGeometry x="230" y="10" width="100" height="60" as="geometry" />
        </mxCell>
        <mxCell id="nTDZ54IMMot18IEP4yEc-53" value="VLAN 4&lt;br&gt;Engineering&lt;br&gt;192.168.14.0/24" style="rounded=0;whiteSpace=wrap;html=1;fillColor=#fa6800;fontColor=#000000;strokeColor=#C73500;" vertex="1" parent="nTDZ54IMMot18IEP4yEc-48">
          <mxGeometry x="340" y="10" width="100" height="60" as="geometry" />
        </mxCell>
        <mxCell id="nTDZ54IMMot18IEP4yEc-54" value="VLAN 5&lt;br&gt;Security&lt;br&gt;192.168.15.0/24" style="rounded=0;whiteSpace=wrap;html=1;fillColor=#647687;fontColor=#ffffff;strokeColor=#314354;" vertex="1" parent="nTDZ54IMMot18IEP4yEc-48">
          <mxGeometry x="450" y="10" width="100" height="60" as="geometry" />
        </mxCell>
        <mxCell id="nTDZ54IMMot18IEP4yEc-55" value="VLAN 6&lt;br&gt;Human Resources&lt;br&gt;192.168.16.0/24" style="rounded=0;whiteSpace=wrap;html=1;fillColor=#8800FF;strokeColor=#6c8ebf;gradientColor=none;" vertex="1" parent="nTDZ54IMMot18IEP4yEc-48">
          <mxGeometry x="560" y="10" width="100" height="60" as="geometry" />
        </mxCell>
        <mxCell id="nTDZ54IMMot18IEP4yEc-56" value="" style="group" vertex="1" connectable="0" parent="1">
          <mxGeometry x="20" y="652" width="690" height="120" as="geometry" />
        </mxCell>
        <mxCell id="nTDZ54IMMot18IEP4yEc-57" value="&lt;br&gt;&lt;br&gt;&lt;br&gt;&lt;br&gt;&lt;br&gt;Managed Switch&lt;br&gt;Cisco" style="rounded=0;whiteSpace=wrap;html=1;fillColor=#dae8fc;strokeColor=default;" vertex="1" parent="nTDZ54IMMot18IEP4yEc-56">
          <mxGeometry width="690" height="120" as="geometry" />
        </mxCell>
        <mxCell id="nTDZ54IMMot18IEP4yEc-58" value="VLAN 1&lt;br&gt;Management&lt;br&gt;192.168.20.0/24" style="rounded=0;whiteSpace=wrap;html=1;fillColor=#1ba1e2;fontColor=#ffffff;strokeColor=#006EAF;" vertex="1" parent="nTDZ54IMMot18IEP4yEc-56">
          <mxGeometry x="20" y="10" width="100" height="60" as="geometry" />
        </mxCell>
        <mxCell id="nTDZ54IMMot18IEP4yEc-59" value="VLAN 2&lt;br&gt;IT&lt;br&gt;192.168.22.0/24" style="rounded=0;whiteSpace=wrap;html=1;fillColor=#6a00ff;fontColor=#ffffff;strokeColor=#3700CC;" vertex="1" parent="nTDZ54IMMot18IEP4yEc-56">
          <mxGeometry x="130" y="10" width="100" height="60" as="geometry" />
        </mxCell>
        <mxCell id="nTDZ54IMMot18IEP4yEc-60" value="VLAN 3&lt;br&gt;Marketing&lt;br&gt;192.168.23.0/24" style="rounded=0;whiteSpace=wrap;html=1;fillColor=#a20025;fontColor=#ffffff;strokeColor=#6F0000;" vertex="1" parent="nTDZ54IMMot18IEP4yEc-56">
          <mxGeometry x="240" y="10" width="100" height="60" as="geometry" />
        </mxCell>
        <mxCell id="nTDZ54IMMot18IEP4yEc-61" value="VLAN 4&lt;br&gt;Engineering&lt;br&gt;192.168.24.0/24" style="rounded=0;whiteSpace=wrap;html=1;fillColor=#fa6800;fontColor=#000000;strokeColor=#C73500;" vertex="1" parent="nTDZ54IMMot18IEP4yEc-56">
          <mxGeometry x="350" y="10" width="100" height="60" as="geometry" />
        </mxCell>
        <mxCell id="nTDZ54IMMot18IEP4yEc-62" value="VLAN 5&lt;br&gt;Security&lt;br&gt;192.168.25.0/24" style="rounded=0;whiteSpace=wrap;html=1;fillColor=#647687;fontColor=#ffffff;strokeColor=#314354;" vertex="1" parent="nTDZ54IMMot18IEP4yEc-56">
          <mxGeometry x="460" y="10" width="100" height="60" as="geometry" />
        </mxCell>
        <mxCell id="nTDZ54IMMot18IEP4yEc-63" value="VLAN 6&lt;br&gt;Human Resources&lt;br&gt;192.168.26.0/24" style="rounded=0;whiteSpace=wrap;html=1;fillColor=#8800FF;strokeColor=#b46504;" vertex="1" parent="nTDZ54IMMot18IEP4yEc-56">
          <mxGeometry x="570" y="10" width="100" height="60" as="geometry" />
        </mxCell>
        <mxCell id="nTDZ54IMMot18IEP4yEc-64" value="Access Point" style="rounded=0;whiteSpace=wrap;html=1;fillColor=#dae8fc;strokeColor=#6c8ebf;" vertex="1" parent="1">
          <mxGeometry x="190" y="30" width="130" height="59.5" as="geometry" />
        </mxCell>
        <mxCell id="nTDZ54IMMot18IEP4yEc-65" value="Trunk" style="rounded=0;whiteSpace=wrap;html=1;" vertex="1" parent="1">
          <mxGeometry x="270.5" y="95" width="55" height="21" as="geometry" />
        </mxCell>
        <mxCell id="nTDZ54IMMot18IEP4yEc-66" value="Access Point" style="rounded=0;whiteSpace=wrap;html=1;fillColor=#dae8fc;strokeColor=#6c8ebf;" vertex="1" parent="1">
          <mxGeometry x="349.5" y="561" width="130" height="59.5" as="geometry" />
        </mxCell>
        <mxCell id="nTDZ54IMMot18IEP4yEc-67" value="Trunk" style="rounded=0;whiteSpace=wrap;html=1;" vertex="1" parent="1">
          <mxGeometry x="430" y="626" width="55" height="21" as="geometry" />
        </mxCell>
        <mxCell id="IoXB7a0sVTyGashCmev8-1" value="VPN Connection&lt;div&gt;between the two&lt;/div&gt;&lt;div&gt;networks&lt;/div&gt;" style="rounded=0;whiteSpace=wrap;html=1;" vertex="1" parent="1">
          <mxGeometry x="605" y="272" width="120" height="60" as="geometry" />
        </mxCell>
      </root>
    </mxGraphModel>
  </diagram>
  <diagram id="wu0SQtt7thqmNNJsw2by" name="SCADA">
    <mxGraphModel dx="1434" dy="780" grid="1" gridSize="10" guides="1" tooltips="1" connect="1" arrows="1" fold="1" page="1" pageScale="1" pageWidth="850" pageHeight="1100" math="0" shadow="0">
      <root>
        <mxCell id="0" />
        <mxCell id="1" parent="0" />
        <mxCell id="qIcQeMheKA13UdAaWGKP-6" value="" style="endArrow=none;html=1;rounded=0;strokeWidth=4;fillColor=#dae8fc;strokeColor=#6c8ebf;" edge="1" parent="1">
          <mxGeometry width="50" height="50" relative="1" as="geometry">
            <mxPoint x="425" y="210" as="sourcePoint" />
            <mxPoint x="425" y="310" as="targetPoint" />
          </mxGeometry>
        </mxCell>
        <mxCell id="gKSZ-Ubclz5i8DNq1Y6P-1" value="Raspberry Pi" style="rounded=0;whiteSpace=wrap;html=1;fillColor=#f8cecc;strokeColor=#b85450;" vertex="1" parent="1">
          <mxGeometry x="100" y="180" width="110" height="60" as="geometry" />
        </mxCell>
        <mxCell id="gKSZ-Ubclz5i8DNq1Y6P-2" value="Raspberry Pi" style="rounded=0;whiteSpace=wrap;html=1;fillColor=#f8cecc;strokeColor=#b85450;" vertex="1" parent="1">
          <mxGeometry x="100" y="260" width="110" height="60" as="geometry" />
        </mxCell>
        <mxCell id="gKSZ-Ubclz5i8DNq1Y6P-3" value="Raspberry Pi" style="rounded=0;whiteSpace=wrap;html=1;fillColor=#f8cecc;strokeColor=#b85450;" vertex="1" parent="1">
          <mxGeometry x="100" y="340" width="110" height="60" as="geometry" />
        </mxCell>
        <mxCell id="gKSZ-Ubclz5i8DNq1Y6P-4" value="Raspberry Pi" style="rounded=0;whiteSpace=wrap;html=1;fillColor=#f8cecc;strokeColor=#b85450;" vertex="1" parent="1">
          <mxGeometry x="100" y="420" width="110" height="60" as="geometry" />
        </mxCell>
        <mxCell id="gKSZ-Ubclz5i8DNq1Y6P-5" value="Raspberry Pi" style="rounded=0;whiteSpace=wrap;html=1;fillColor=#f8cecc;strokeColor=#b85450;" vertex="1" parent="1">
          <mxGeometry x="100" y="500" width="110" height="60" as="geometry" />
        </mxCell>
        <mxCell id="gKSZ-Ubclz5i8DNq1Y6P-6" value="Raspberry Pi" style="rounded=0;whiteSpace=wrap;html=1;fillColor=#f8cecc;strokeColor=#b85450;" vertex="1" parent="1">
          <mxGeometry x="550" y="180" width="110" height="60" as="geometry" />
        </mxCell>
        <mxCell id="gKSZ-Ubclz5i8DNq1Y6P-7" value="Raspberry Pi" style="rounded=0;whiteSpace=wrap;html=1;fillColor=#f8cecc;strokeColor=#b85450;" vertex="1" parent="1">
          <mxGeometry x="550" y="260" width="110" height="60" as="geometry" />
        </mxCell>
        <mxCell id="gKSZ-Ubclz5i8DNq1Y6P-8" value="Raspberry Pi" style="rounded=0;whiteSpace=wrap;html=1;fillColor=#f8cecc;strokeColor=#b85450;" vertex="1" parent="1">
          <mxGeometry x="550" y="340" width="110" height="60" as="geometry" />
        </mxCell>
        <mxCell id="gKSZ-Ubclz5i8DNq1Y6P-9" value="Raspberry Pi" style="rounded=0;whiteSpace=wrap;html=1;fillColor=#f8cecc;strokeColor=#b85450;" vertex="1" parent="1">
          <mxGeometry x="550" y="420" width="110" height="60" as="geometry" />
        </mxCell>
        <mxCell id="gKSZ-Ubclz5i8DNq1Y6P-10" value="Raspberry Pi" style="rounded=0;whiteSpace=wrap;html=1;fillColor=#f8cecc;strokeColor=#b85450;" vertex="1" parent="1">
          <mxGeometry x="550" y="500" width="110" height="60" as="geometry" />
        </mxCell>
        <mxCell id="gKSZ-Ubclz5i8DNq1Y6P-12" value="Access Point" style="rounded=0;whiteSpace=wrap;html=1;fillColor=#dae8fc;strokeColor=#6c8ebf;" vertex="1" parent="1">
          <mxGeometry x="250" y="310" width="120" height="60" as="geometry" />
        </mxCell>
        <mxCell id="gKSZ-Ubclz5i8DNq1Y6P-13" value="Managed Cisco Switch&lt;div&gt;VLAN 101&lt;/div&gt;" style="rounded=0;whiteSpace=wrap;html=1;fillColor=#dae8fc;strokeColor=#6c8ebf;" vertex="1" parent="1">
          <mxGeometry x="400" y="310" width="120" height="60" as="geometry" />
        </mxCell>
        <mxCell id="qIcQeMheKA13UdAaWGKP-1" value="Router" style="rounded=0;whiteSpace=wrap;html=1;fillColor=#d5e8d4;strokeColor=#82b366;" vertex="1" parent="1">
          <mxGeometry x="330" y="470" width="120" height="60" as="geometry" />
        </mxCell>
        <mxCell id="qIcQeMheKA13UdAaWGKP-2" value="" style="endArrow=none;html=1;rounded=0;strokeWidth=4;fillColor=#dae8fc;strokeColor=#6c8ebf;" edge="1" parent="1">
          <mxGeometry width="50" height="50" relative="1" as="geometry">
            <mxPoint x="350" y="370" as="sourcePoint" />
            <mxPoint x="350" y="470" as="targetPoint" />
          </mxGeometry>
        </mxCell>
        <mxCell id="qIcQeMheKA13UdAaWGKP-3" value="" style="endArrow=none;html=1;rounded=0;strokeWidth=4;fillColor=#dae8fc;strokeColor=#6c8ebf;" edge="1" parent="1">
          <mxGeometry width="50" height="50" relative="1" as="geometry">
            <mxPoint x="440" y="370" as="sourcePoint" />
            <mxPoint x="440" y="470" as="targetPoint" />
          </mxGeometry>
        </mxCell>
        <mxCell id="qIcQeMheKA13UdAaWGKP-5" value="Controller&lt;div&gt;Likely a CT or VM&lt;/div&gt;&lt;div&gt;in Proxmox&lt;/div&gt;" style="rounded=0;whiteSpace=wrap;html=1;" vertex="1" parent="1">
          <mxGeometry x="330" y="170" width="120" height="60" as="geometry" />
        </mxCell>
        <mxCell id="A_uI6Hpc8QzkdIShO3a--1" value="This was a proposal by Professor Peng, probably not going to be in the initial layout" style="rounded=0;whiteSpace=wrap;html=1;" vertex="1" parent="1">
          <mxGeometry x="250" y="570" width="290" height="110" as="geometry" />
        </mxCell>
      </root>
    </mxGraphModel>
  </diagram>
  <diagram id="W1mRd5NP1DNJUuMVRiET" name="IoT">
    <mxGraphModel dx="1434" dy="780" grid="1" gridSize="10" guides="1" tooltips="1" connect="1" arrows="1" fold="1" page="1" pageScale="1" pageWidth="850" pageHeight="1100" math="0" shadow="0">
      <root>
        <mxCell id="0" />
        <mxCell id="1" parent="0" />
        <mxCell id="L3FFlLhtMsLyJ9VFjbvf-2" value="Access Point" style="rounded=0;whiteSpace=wrap;html=1;fillColor=#dae8fc;strokeColor=#6c8ebf;" vertex="1" parent="1">
          <mxGeometry x="250" y="310" width="120" height="60" as="geometry" />
        </mxCell>
        <mxCell id="L3FFlLhtMsLyJ9VFjbvf-3" value="Managed Cisco Switch&lt;div&gt;VLAN 102&lt;/div&gt;" style="rounded=0;whiteSpace=wrap;html=1;fillColor=#dae8fc;strokeColor=#6c8ebf;" vertex="1" parent="1">
          <mxGeometry x="400" y="310" width="120" height="60" as="geometry" />
        </mxCell>
        <mxCell id="L3FFlLhtMsLyJ9VFjbvf-4" value="Router" style="rounded=0;whiteSpace=wrap;html=1;fillColor=#d5e8d4;strokeColor=#82b366;" vertex="1" parent="1">
          <mxGeometry x="330" y="470" width="120" height="60" as="geometry" />
        </mxCell>
        <mxCell id="L3FFlLhtMsLyJ9VFjbvf-5" value="" style="endArrow=none;html=1;rounded=0;strokeWidth=4;fillColor=#dae8fc;strokeColor=#6c8ebf;" edge="1" parent="1">
          <mxGeometry width="50" height="50" relative="1" as="geometry">
            <mxPoint x="350" y="370" as="sourcePoint" />
            <mxPoint x="350" y="470" as="targetPoint" />
          </mxGeometry>
        </mxCell>
        <mxCell id="L3FFlLhtMsLyJ9VFjbvf-6" value="" style="endArrow=none;html=1;rounded=0;strokeWidth=4;fillColor=#dae8fc;strokeColor=#6c8ebf;" edge="1" parent="1">
          <mxGeometry width="50" height="50" relative="1" as="geometry">
            <mxPoint x="440" y="370" as="sourcePoint" />
            <mxPoint x="440" y="470" as="targetPoint" />
          </mxGeometry>
        </mxCell>
        <mxCell id="Bepy5cpNsdULQJWvYv1S-1" value="This was a proposal by Professor Peng, probably not going to be in the initial layout" style="rounded=0;whiteSpace=wrap;html=1;" vertex="1" parent="1">
          <mxGeometry x="250" y="570" width="290" height="110" as="geometry" />
        </mxCell>
      </root>
    </mxGraphModel>
  </diagram>
  <diagram id="z92sgsH8kY6RpHeXLn58" name="GOAD">
    <mxGraphModel dx="989" dy="538" grid="1" gridSize="10" guides="1" tooltips="1" connect="1" arrows="1" fold="1" page="1" pageScale="1" pageWidth="850" pageHeight="1100" math="0" shadow="0">
      <root>
        <mxCell id="0" />
        <mxCell id="1" parent="0" />
        <mxCell id="9LjmWRvyWBujnvoRRCLq-7" value="" style="endArrow=none;html=1;rounded=0;strokeColor=#000000;strokeWidth=8;" edge="1" parent="1">
          <mxGeometry width="50" height="50" relative="1" as="geometry">
            <mxPoint x="339" y="567" as="sourcePoint" />
            <mxPoint x="339" y="528" as="targetPoint" />
          </mxGeometry>
        </mxCell>
        <mxCell id="9LjmWRvyWBujnvoRRCLq-14" value="Proxmox node 3&lt;div&gt;Hosts the&amp;nbsp;&lt;/div&gt;&lt;div&gt;&lt;span style=&quot;background-color: initial;&quot;&gt;Game of Active Directory (GOAD)&lt;/span&gt;&lt;/div&gt;&lt;div&gt;&lt;span style=&quot;background-color: initial;&quot;&gt;Windows Penetration Testing Lab&lt;/span&gt;&lt;/div&gt;&lt;div&gt;https://github.com/Orange-Cyberdefense/GOAD&lt;br&gt;&lt;/div&gt;" style="rounded=0;whiteSpace=wrap;html=1;fillColor=#dae8fc;strokeColor=#6c8ebf;" vertex="1" parent="1">
          <mxGeometry x="200" y="567" width="350" height="200" as="geometry" />
        </mxCell>
        <mxCell id="9LjmWRvyWBujnvoRRCLq-21" value="" style="endArrow=none;html=1;rounded=0;strokeWidth=4;fillColor=#60a917;strokeColor=#2D7600;" edge="1" parent="1">
          <mxGeometry width="50" height="50" relative="1" as="geometry">
            <mxPoint x="380" y="459.58" as="sourcePoint" />
            <mxPoint x="451.7586206896551" y="459.58" as="targetPoint" />
            <Array as="points" />
          </mxGeometry>
        </mxCell>
        <mxCell id="9LjmWRvyWBujnvoRRCLq-22" value="&lt;br&gt;" style="edgeLabel;html=1;align=center;verticalAlign=middle;resizable=0;points=[];" vertex="1" connectable="0" parent="9LjmWRvyWBujnvoRRCLq-21">
          <mxGeometry x="-0.2072" y="1" relative="1" as="geometry">
            <mxPoint x="170" y="258" as="offset" />
          </mxGeometry>
        </mxCell>
        <mxCell id="9LjmWRvyWBujnvoRRCLq-24" value="Router" style="rounded=0;whiteSpace=wrap;html=1;fillColor=#d5e8d4;strokeColor=#82b366;" vertex="1" parent="1">
          <mxGeometry x="440" y="430" width="120" height="60" as="geometry" />
        </mxCell>
        <mxCell id="sCKHe8RAQfCqUDXgJX8N-2" value="" style="group" vertex="1" connectable="0" parent="1">
          <mxGeometry x="220" y="410" width="170" height="120" as="geometry" />
        </mxCell>
        <mxCell id="9LjmWRvyWBujnvoRRCLq-27" value="&lt;br&gt;&lt;br&gt;&lt;br&gt;&lt;br&gt;&lt;br&gt;Managed Switch&lt;br&gt;Cisco" style="rounded=0;whiteSpace=wrap;html=1;fillColor=#dae8fc;strokeColor=default;" vertex="1" parent="sCKHe8RAQfCqUDXgJX8N-2">
          <mxGeometry width="170" height="120" as="geometry" />
        </mxCell>
        <mxCell id="9LjmWRvyWBujnvoRRCLq-28" value="VLAN 100&lt;br&gt;GOAD Network&lt;br&gt;192.168.100.0/24" style="rounded=0;whiteSpace=wrap;html=1;fillColor=#1ba1e2;fontColor=#ffffff;strokeColor=#006EAF;" vertex="1" parent="sCKHe8RAQfCqUDXgJX8N-2">
          <mxGeometry x="30" y="10" width="120" height="60" as="geometry" />
        </mxCell>
      </root>
    </mxGraphModel>
  </diagram>
  <diagram id="R8BSqOA3lg0l5hF6ftmM" name="Combined Layout">
    <mxGraphModel dx="1793" dy="975" grid="1" gridSize="10" guides="1" tooltips="1" connect="1" arrows="1" fold="1" page="1" pageScale="1" pageWidth="850" pageHeight="1100" math="0" shadow="0">
      <root>
        <mxCell id="0" />
        <mxCell id="1" parent="0" />
        <mxCell id="Y2MYGTGE5BGQtIgaMysU-3" value="" style="endArrow=none;html=1;rounded=0;strokeWidth=4;fillColor=#e1d5e7;strokeColor=#9673a6;" edge="1" parent="1">
          <mxGeometry width="50" height="50" relative="1" as="geometry">
            <mxPoint x="432.26" y="525" as="sourcePoint" />
            <mxPoint x="432.26" y="466" as="targetPoint" />
          </mxGeometry>
        </mxCell>
        <mxCell id="Y2MYGTGE5BGQtIgaMysU-4" value="" style="endArrow=none;html=1;rounded=0;strokeWidth=4;fillColor=#f8cecc;strokeColor=#b85450;curved=0;" edge="1" parent="1">
          <mxGeometry width="50" height="50" relative="1" as="geometry">
            <mxPoint x="436.26" y="525" as="sourcePoint" />
            <mxPoint x="436.26" y="466" as="targetPoint" />
          </mxGeometry>
        </mxCell>
        <mxCell id="Y2MYGTGE5BGQtIgaMysU-5" value="" style="endArrow=none;html=1;rounded=0;strokeWidth=4;fillColor=#1ba1e2;strokeColor=#006EAF;" edge="1" parent="1">
          <mxGeometry width="50" height="50" relative="1" as="geometry">
            <mxPoint x="428.26" y="525" as="sourcePoint" />
            <mxPoint x="428.26" y="466" as="targetPoint" />
          </mxGeometry>
        </mxCell>
        <mxCell id="iwVZzM-GP_WKRaPaAtk2-8" value="&lt;div&gt;&lt;br&gt;&lt;/div&gt;&lt;div&gt;&lt;br&gt;&lt;/div&gt;&lt;div&gt;&lt;br&gt;&lt;/div&gt;&lt;div&gt;&lt;br&gt;&lt;/div&gt;&lt;div&gt;&lt;br&gt;&lt;/div&gt;&lt;div&gt;SCADA Simulation Lab&lt;/div&gt;" style="rounded=0;whiteSpace=wrap;html=1;fillColor=#ffe6cc;strokeColor=#d79b00;direction=west;" vertex="1" parent="1">
          <mxGeometry x="353" y="625" width="143" height="85" as="geometry" />
        </mxCell>
        <mxCell id="gG1sJ_HZfGOTWU4-TNQA-5" value="&lt;div&gt;&lt;br&gt;&lt;/div&gt;&lt;div&gt;&lt;br&gt;&lt;/div&gt;&lt;div&gt;&lt;br&gt;&lt;/div&gt;&lt;div&gt;&lt;br&gt;&lt;/div&gt;&lt;div&gt;&lt;br&gt;&lt;/div&gt;&lt;div&gt;&lt;br&gt;&lt;/div&gt;&lt;div&gt;&lt;br&gt;&lt;/div&gt;&lt;div&gt;&lt;br&gt;&lt;/div&gt;&lt;div&gt;&lt;br&gt;&lt;/div&gt;&lt;div&gt;GOAD Windows Penetration Testing Lab&lt;/div&gt;" style="rounded=0;whiteSpace=wrap;html=1;fillColor=#ffe6cc;strokeColor=#d79b00;" vertex="1" parent="1">
          <mxGeometry x="26" y="499" width="304" height="153" as="geometry" />
        </mxCell>
        <mxCell id="8B3m_3BQ6FmH0sqijED9-2" value="" style="endArrow=none;html=1;rounded=0;strokeWidth=4;fillColor=#60a917;strokeColor=#2D7600;" edge="1" parent="1">
          <mxGeometry width="50" height="50" relative="1" as="geometry">
            <mxPoint x="510" y="423" as="sourcePoint" />
            <mxPoint x="510" y="519" as="targetPoint" />
            <Array as="points" />
          </mxGeometry>
        </mxCell>
        <mxCell id="JDvsjkRAIQbsqcDF0xb_-1" value="" style="endArrow=none;html=1;rounded=0;strokeWidth=4;fillColor=#1ba1e2;strokeColor=#006EAF;" edge="1" parent="1">
          <mxGeometry width="50" height="50" relative="1" as="geometry">
            <mxPoint x="246" y="121" as="sourcePoint" />
            <mxPoint x="246" y="89" as="targetPoint" />
          </mxGeometry>
        </mxCell>
        <mxCell id="JDvsjkRAIQbsqcDF0xb_-2" value="" style="endArrow=none;html=1;rounded=0;strokeWidth=4;fillColor=#6a00ff;strokeColor=#3700CC;" edge="1" parent="1">
          <mxGeometry width="50" height="50" relative="1" as="geometry">
            <mxPoint x="250" y="121" as="sourcePoint" />
            <mxPoint x="250" y="89" as="targetPoint" />
          </mxGeometry>
        </mxCell>
        <mxCell id="JDvsjkRAIQbsqcDF0xb_-3" value="" style="endArrow=none;html=1;rounded=0;strokeWidth=4;fillColor=#fa6800;strokeColor=#C73500;" edge="1" parent="1">
          <mxGeometry width="50" height="50" relative="1" as="geometry">
            <mxPoint x="258" y="121" as="sourcePoint" />
            <mxPoint x="258" y="89" as="targetPoint" />
          </mxGeometry>
        </mxCell>
        <mxCell id="JDvsjkRAIQbsqcDF0xb_-4" value="" style="endArrow=none;html=1;rounded=0;strokeWidth=4;fillColor=#a20025;strokeColor=#6F0000;" edge="1" parent="1">
          <mxGeometry width="50" height="50" relative="1" as="geometry">
            <mxPoint x="254" y="121" as="sourcePoint" />
            <mxPoint x="254" y="89" as="targetPoint" />
          </mxGeometry>
        </mxCell>
        <mxCell id="JDvsjkRAIQbsqcDF0xb_-5" value="" style="endArrow=none;html=1;rounded=0;strokeWidth=4;fillColor=#647687;strokeColor=#314354;" edge="1" parent="1">
          <mxGeometry width="50" height="50" relative="1" as="geometry">
            <mxPoint x="262" y="121" as="sourcePoint" />
            <mxPoint x="262" y="89" as="targetPoint" />
          </mxGeometry>
        </mxCell>
        <mxCell id="JDvsjkRAIQbsqcDF0xb_-6" value="" style="endArrow=none;html=1;rounded=0;strokeWidth=4;fillColor=#dae8fc;strokeColor=#8800FF;gradientColor=#7ea6e0;curved=0;" edge="1" parent="1">
          <mxGeometry width="50" height="50" relative="1" as="geometry">
            <mxPoint x="266" y="121" as="sourcePoint" />
            <mxPoint x="266" y="89" as="targetPoint" />
          </mxGeometry>
        </mxCell>
        <mxCell id="JDvsjkRAIQbsqcDF0xb_-7" value="" style="endArrow=none;html=1;rounded=0;strokeWidth=4;fillColor=#1ba1e2;strokeColor=#006EAF;" edge="1" parent="1">
          <mxGeometry width="50" height="50" relative="1" as="geometry">
            <mxPoint x="91" y="883" as="sourcePoint" />
            <mxPoint x="91" y="851" as="targetPoint" />
          </mxGeometry>
        </mxCell>
        <mxCell id="JDvsjkRAIQbsqcDF0xb_-8" value="" style="endArrow=none;html=1;rounded=0;strokeWidth=4;fillColor=#6a00ff;strokeColor=#3700CC;" edge="1" parent="1">
          <mxGeometry width="50" height="50" relative="1" as="geometry">
            <mxPoint x="95" y="883" as="sourcePoint" />
            <mxPoint x="95" y="851" as="targetPoint" />
          </mxGeometry>
        </mxCell>
        <mxCell id="JDvsjkRAIQbsqcDF0xb_-9" value="" style="endArrow=none;html=1;rounded=0;strokeWidth=4;fillColor=#fa6800;strokeColor=#C73500;" edge="1" parent="1">
          <mxGeometry width="50" height="50" relative="1" as="geometry">
            <mxPoint x="103" y="883" as="sourcePoint" />
            <mxPoint x="103" y="851" as="targetPoint" />
          </mxGeometry>
        </mxCell>
        <mxCell id="JDvsjkRAIQbsqcDF0xb_-10" value="" style="endArrow=none;html=1;rounded=0;strokeWidth=4;fillColor=#a20025;strokeColor=#6F0000;" edge="1" parent="1">
          <mxGeometry width="50" height="50" relative="1" as="geometry">
            <mxPoint x="99" y="883" as="sourcePoint" />
            <mxPoint x="99" y="851" as="targetPoint" />
          </mxGeometry>
        </mxCell>
        <mxCell id="JDvsjkRAIQbsqcDF0xb_-11" value="" style="endArrow=none;html=1;rounded=0;strokeWidth=4;fillColor=#647687;strokeColor=#314354;" edge="1" parent="1">
          <mxGeometry width="50" height="50" relative="1" as="geometry">
            <mxPoint x="107" y="883" as="sourcePoint" />
            <mxPoint x="107" y="851" as="targetPoint" />
          </mxGeometry>
        </mxCell>
        <mxCell id="JDvsjkRAIQbsqcDF0xb_-12" value="" style="endArrow=none;html=1;rounded=0;strokeWidth=4;fillColor=#dae8fc;strokeColor=#8800FF;gradientColor=#7ea6e0;curved=0;" edge="1" parent="1">
          <mxGeometry width="50" height="50" relative="1" as="geometry">
            <mxPoint x="111" y="883" as="sourcePoint" />
            <mxPoint x="111" y="851" as="targetPoint" />
          </mxGeometry>
        </mxCell>
        <mxCell id="JDvsjkRAIQbsqcDF0xb_-13" value="" style="endArrow=none;html=1;rounded=0;strokeColor=#000000;strokeWidth=8;" edge="1" parent="1">
          <mxGeometry width="50" height="50" relative="1" as="geometry">
            <mxPoint x="220" y="300" as="sourcePoint" />
            <mxPoint x="220" y="240" as="targetPoint" />
          </mxGeometry>
        </mxCell>
        <mxCell id="JDvsjkRAIQbsqcDF0xb_-14" value="Proxmox node 2" style="rounded=0;whiteSpace=wrap;html=1;fillColor=#dae8fc;strokeColor=#6c8ebf;" vertex="1" parent="1">
          <mxGeometry x="470" y="892" width="350" height="200" as="geometry" />
        </mxCell>
        <mxCell id="JDvsjkRAIQbsqcDF0xb_-21" value="" style="endArrow=none;html=1;rounded=0;strokeWidth=4;fillColor=#647687;strokeColor=#314354;" edge="1" parent="1">
          <mxGeometry width="50" height="50" relative="1" as="geometry">
            <mxPoint x="542" y="902" as="sourcePoint" />
            <mxPoint x="542" y="850" as="targetPoint" />
          </mxGeometry>
        </mxCell>
        <mxCell id="JDvsjkRAIQbsqcDF0xb_-22" value="" style="endArrow=none;html=1;rounded=0;strokeWidth=4;fillColor=#a20025;strokeColor=#6F0000;" edge="1" parent="1">
          <mxGeometry width="50" height="50" relative="1" as="geometry">
            <mxPoint x="534" y="902" as="sourcePoint" />
            <mxPoint x="534" y="850" as="targetPoint" />
          </mxGeometry>
        </mxCell>
        <mxCell id="JDvsjkRAIQbsqcDF0xb_-23" value="" style="endArrow=none;html=1;rounded=0;strokeWidth=4;fillColor=#fa6800;strokeColor=#C73500;" edge="1" parent="1">
          <mxGeometry width="50" height="50" relative="1" as="geometry">
            <mxPoint x="538" y="902" as="sourcePoint" />
            <mxPoint x="538" y="850" as="targetPoint" />
          </mxGeometry>
        </mxCell>
        <mxCell id="JDvsjkRAIQbsqcDF0xb_-24" value="" style="endArrow=none;html=1;rounded=0;strokeWidth=4;fillColor=#6a00ff;strokeColor=#3700CC;" edge="1" parent="1">
          <mxGeometry width="50" height="50" relative="1" as="geometry">
            <mxPoint x="530" y="902" as="sourcePoint" />
            <mxPoint x="530" y="850" as="targetPoint" />
          </mxGeometry>
        </mxCell>
        <mxCell id="JDvsjkRAIQbsqcDF0xb_-25" value="" style="endArrow=none;html=1;rounded=0;strokeWidth=4;fillColor=#1ba1e2;strokeColor=#006EAF;" edge="1" parent="1">
          <mxGeometry width="50" height="50" relative="1" as="geometry">
            <mxPoint x="526" y="902" as="sourcePoint" />
            <mxPoint x="526" y="850" as="targetPoint" />
          </mxGeometry>
        </mxCell>
        <mxCell id="JDvsjkRAIQbsqcDF0xb_-26" value="Proxmox node 1" style="rounded=0;whiteSpace=wrap;html=1;fillColor=#dae8fc;strokeColor=#6c8ebf;" vertex="1" parent="1">
          <mxGeometry x="30" y="288" width="350" height="200" as="geometry" />
        </mxCell>
        <mxCell id="JDvsjkRAIQbsqcDF0xb_-16" value="" style="endArrow=none;html=1;rounded=0;strokeWidth=4;fillColor=#6a00ff;strokeColor=#3700CC;" edge="1" parent="1">
          <mxGeometry width="50" height="50" relative="1" as="geometry">
            <mxPoint x="110" y="300" as="sourcePoint" />
            <mxPoint x="110" y="241" as="targetPoint" />
          </mxGeometry>
        </mxCell>
        <mxCell id="JDvsjkRAIQbsqcDF0xb_-15" value="" style="endArrow=none;html=1;rounded=0;strokeWidth=4;fillColor=#1ba1e2;strokeColor=#006EAF;" edge="1" parent="1">
          <mxGeometry width="50" height="50" relative="1" as="geometry">
            <mxPoint x="106" y="300" as="sourcePoint" />
            <mxPoint x="106" y="241" as="targetPoint" />
          </mxGeometry>
        </mxCell>
        <mxCell id="JDvsjkRAIQbsqcDF0xb_-17" value="" style="endArrow=none;html=1;rounded=0;strokeWidth=4;fillColor=#fa6800;strokeColor=#C73500;" edge="1" parent="1">
          <mxGeometry width="50" height="50" relative="1" as="geometry">
            <mxPoint x="118" y="300" as="sourcePoint" />
            <mxPoint x="118" y="241" as="targetPoint" />
          </mxGeometry>
        </mxCell>
        <mxCell id="JDvsjkRAIQbsqcDF0xb_-18" value="" style="endArrow=none;html=1;rounded=0;strokeWidth=4;fillColor=#a20025;strokeColor=#6F0000;" edge="1" parent="1">
          <mxGeometry width="50" height="50" relative="1" as="geometry">
            <mxPoint x="114" y="300" as="sourcePoint" />
            <mxPoint x="114" y="241" as="targetPoint" />
          </mxGeometry>
        </mxCell>
        <mxCell id="JDvsjkRAIQbsqcDF0xb_-20" value="" style="endArrow=none;html=1;rounded=0;strokeWidth=4;fillColor=#dae8fc;strokeColor=#8800FF;gradientColor=#7ea6e0;curved=0;" edge="1" parent="1">
          <mxGeometry width="50" height="50" relative="1" as="geometry">
            <mxPoint x="126" y="300" as="sourcePoint" />
            <mxPoint x="126" y="241" as="targetPoint" />
          </mxGeometry>
        </mxCell>
        <mxCell id="JDvsjkRAIQbsqcDF0xb_-19" value="" style="endArrow=none;html=1;rounded=0;strokeWidth=4;fillColor=#647687;strokeColor=#314354;" edge="1" parent="1">
          <mxGeometry width="50" height="50" relative="1" as="geometry">
            <mxPoint x="122" y="300" as="sourcePoint" />
            <mxPoint x="122" y="241" as="targetPoint" />
          </mxGeometry>
        </mxCell>
        <mxCell id="JDvsjkRAIQbsqcDF0xb_-27" value="Trunk" style="rounded=0;whiteSpace=wrap;html=1;" vertex="1" parent="1">
          <mxGeometry x="437" y="857" width="80" height="30" as="geometry" />
        </mxCell>
        <mxCell id="JDvsjkRAIQbsqcDF0xb_-28" value="DNS&lt;br&gt;PiHole" style="rounded=0;whiteSpace=wrap;html=1;fillColor=#e1d5e7;strokeColor=#9673a6;" vertex="1" parent="1">
          <mxGeometry x="245" y="298" width="120" height="60" as="geometry" />
        </mxCell>
        <mxCell id="JDvsjkRAIQbsqcDF0xb_-29" value="WIndows Server" style="rounded=0;whiteSpace=wrap;html=1;fillColor=#e1d5e7;strokeColor=#9673a6;" vertex="1" parent="1">
          <mxGeometry x="45" y="418" width="120" height="60" as="geometry" />
        </mxCell>
        <mxCell id="JDvsjkRAIQbsqcDF0xb_-30" value="DNS&lt;br&gt;PiHole" style="rounded=0;whiteSpace=wrap;html=1;fillColor=#e1d5e7;strokeColor=#9673a6;" vertex="1" parent="1">
          <mxGeometry x="685" y="902" width="120" height="60" as="geometry" />
        </mxCell>
        <mxCell id="JDvsjkRAIQbsqcDF0xb_-31" value="" style="endArrow=none;html=1;rounded=0;strokeWidth=4;fillColor=#60a917;strokeColor=#2D7600;entryX=0.62;entryY=0.036;entryDx=0;entryDy=0;entryPerimeter=0;exitX=0.916;exitY=1.007;exitDx=0;exitDy=0;exitPerimeter=0;" edge="1" parent="1" source="JDvsjkRAIQbsqcDF0xb_-42" target="JDvsjkRAIQbsqcDF0xb_-39">
          <mxGeometry width="50" height="50" relative="1" as="geometry">
            <mxPoint x="610" y="430" as="sourcePoint" />
            <mxPoint x="755" y="277" as="targetPoint" />
            <Array as="points">
              <mxPoint x="610" y="470" />
              <mxPoint x="830" y="470" />
              <mxPoint x="830" y="880" />
              <mxPoint x="560" y="880" />
            </Array>
          </mxGeometry>
        </mxCell>
        <mxCell id="JDvsjkRAIQbsqcDF0xb_-32" value="" style="endArrow=none;html=1;rounded=0;strokeWidth=4;fillColor=#60a917;strokeColor=#2D7600;entryX=0.16;entryY=0.55;entryDx=0;entryDy=0;exitX=1;exitY=0.5;exitDx=0;exitDy=0;entryPerimeter=0;" edge="1" parent="1" source="JDvsjkRAIQbsqcDF0xb_-42">
          <mxGeometry width="50" height="50" relative="1" as="geometry">
            <mxPoint x="495" y="348" as="sourcePoint" />
            <mxPoint x="653.6000000000001" y="397.5" as="targetPoint" />
          </mxGeometry>
        </mxCell>
        <mxCell id="JDvsjkRAIQbsqcDF0xb_-33" value="&lt;br&gt;" style="edgeLabel;html=1;align=center;verticalAlign=middle;resizable=0;points=[];" vertex="1" connectable="0" parent="JDvsjkRAIQbsqcDF0xb_-32">
          <mxGeometry x="-0.2072" y="1" relative="1" as="geometry">
            <mxPoint as="offset" />
          </mxGeometry>
        </mxCell>
        <mxCell id="JDvsjkRAIQbsqcDF0xb_-34" value="Trunk" style="rounded=0;whiteSpace=wrap;html=1;" vertex="1" parent="1">
          <mxGeometry x="20" y="250" width="80" height="30" as="geometry" />
        </mxCell>
        <mxCell id="JDvsjkRAIQbsqcDF0xb_-35" value="" style="endArrow=none;html=1;rounded=0;strokeColor=#000000;strokeWidth=4;" edge="1" parent="1">
          <mxGeometry width="50" height="50" relative="1" as="geometry">
            <mxPoint x="520" y="388" as="sourcePoint" />
            <mxPoint x="520" y="309" as="targetPoint" />
          </mxGeometry>
        </mxCell>
        <mxCell id="JDvsjkRAIQbsqcDF0xb_-36" value="" style="endArrow=none;html=1;rounded=0;strokeWidth=4;fillColor=#60a917;strokeColor=#2D7600;exitX=0.75;exitY=0;exitDx=0;exitDy=0;" edge="1" parent="1" source="JDvsjkRAIQbsqcDF0xb_-42">
          <mxGeometry width="50" height="50" relative="1" as="geometry">
            <mxPoint x="580" y="382" as="sourcePoint" />
            <mxPoint x="140" y="300" as="targetPoint" />
            <Array as="points">
              <mxPoint x="590" y="252" />
              <mxPoint x="140" y="252" />
            </Array>
          </mxGeometry>
        </mxCell>
        <mxCell id="JDvsjkRAIQbsqcDF0xb_-37" value="&lt;br&gt;" style="edgeLabel;html=1;align=center;verticalAlign=middle;resizable=0;points=[];" vertex="1" connectable="0" parent="JDvsjkRAIQbsqcDF0xb_-36">
          <mxGeometry x="-0.2072" y="1" relative="1" as="geometry">
            <mxPoint as="offset" />
          </mxGeometry>
        </mxCell>
        <mxCell id="JDvsjkRAIQbsqcDF0xb_-38" value="" style="endArrow=none;html=1;rounded=0;strokeWidth=4;fillColor=#60a917;strokeColor=#8800FF;" edge="1" parent="1">
          <mxGeometry width="50" height="50" relative="1" as="geometry">
            <mxPoint x="546" y="902" as="sourcePoint" />
            <mxPoint x="546" y="850" as="targetPoint" />
          </mxGeometry>
        </mxCell>
        <mxCell id="JDvsjkRAIQbsqcDF0xb_-39" value="Firewall&lt;br&gt;OPNsense&lt;br&gt;6 VLANS" style="rounded=0;whiteSpace=wrap;html=1;fillColor=#f8cecc;strokeColor=#b85450;" vertex="1" parent="1">
          <mxGeometry x="485" y="902" width="120" height="60" as="geometry" />
        </mxCell>
        <mxCell id="JDvsjkRAIQbsqcDF0xb_-40" value="Firewall&lt;br&gt;OPNsense&lt;br&gt;6 VLANS" style="rounded=0;whiteSpace=wrap;html=1;fillColor=#f8cecc;strokeColor=#b85450;" vertex="1" parent="1">
          <mxGeometry x="45" y="298" width="120" height="60" as="geometry" />
        </mxCell>
        <mxCell id="JDvsjkRAIQbsqcDF0xb_-41" value="&lt;font style=&quot;font-size: 32px;&quot;&gt;Internet&lt;/font&gt;" style="ellipse;shape=cloud;whiteSpace=wrap;html=1;fillColor=#d5e8d4;strokeColor=#82b366;" vertex="1" parent="1">
          <mxGeometry x="620" y="316" width="210" height="150" as="geometry" />
        </mxCell>
        <mxCell id="JDvsjkRAIQbsqcDF0xb_-42" value="Router" style="rounded=0;whiteSpace=wrap;html=1;fillColor=#d5e8d4;strokeColor=#82b366;" vertex="1" parent="1">
          <mxGeometry x="500" y="367" width="120" height="60" as="geometry" />
        </mxCell>
        <mxCell id="JDvsjkRAIQbsqcDF0xb_-43" value="Managed Switch&lt;br&gt;Cisco" style="rounded=0;whiteSpace=wrap;html=1;fillColor=#dae8fc;strokeColor=default;container=0;" vertex="1" parent="1">
          <mxGeometry x="425" y="265" width="145" height="90" as="geometry" />
        </mxCell>
        <mxCell id="JDvsjkRAIQbsqcDF0xb_-44" value="" style="endArrow=none;html=1;rounded=0;strokeColor=#000000;strokeWidth=8;entryX=0.25;entryY=1;entryDx=0;entryDy=0;" edge="1" parent="1">
          <mxGeometry width="50" height="50" relative="1" as="geometry">
            <mxPoint x="630" y="892" as="sourcePoint" />
            <mxPoint x="630" y="850" as="targetPoint" />
          </mxGeometry>
        </mxCell>
        <mxCell id="JDvsjkRAIQbsqcDF0xb_-45" value="" style="group" vertex="1" connectable="0" parent="1">
          <mxGeometry x="20" y="121" width="680" height="120" as="geometry" />
        </mxCell>
        <mxCell id="JDvsjkRAIQbsqcDF0xb_-46" value="&lt;br&gt;&lt;br&gt;&lt;br&gt;&lt;br&gt;&lt;br&gt;Managed Switch&lt;br&gt;Cisco" style="rounded=0;whiteSpace=wrap;html=1;fillColor=#dae8fc;strokeColor=default;" vertex="1" parent="JDvsjkRAIQbsqcDF0xb_-45">
          <mxGeometry width="680" height="120" as="geometry" />
        </mxCell>
        <mxCell id="JDvsjkRAIQbsqcDF0xb_-47" value="VLAN 1&lt;br&gt;Management&lt;br&gt;192.168.10.0/24" style="rounded=0;whiteSpace=wrap;html=1;fillColor=#1ba1e2;fontColor=#ffffff;strokeColor=#006EAF;" vertex="1" parent="JDvsjkRAIQbsqcDF0xb_-45">
          <mxGeometry x="10" y="10" width="100" height="60" as="geometry" />
        </mxCell>
        <mxCell id="JDvsjkRAIQbsqcDF0xb_-48" value="VLAN 2&lt;br&gt;IT&lt;br&gt;192.168.12.0/24" style="rounded=0;whiteSpace=wrap;html=1;fillColor=#6a00ff;fontColor=#ffffff;strokeColor=#3700CC;" vertex="1" parent="JDvsjkRAIQbsqcDF0xb_-45">
          <mxGeometry x="120" y="10" width="100" height="60" as="geometry" />
        </mxCell>
        <mxCell id="JDvsjkRAIQbsqcDF0xb_-49" value="VLAN 3&lt;br&gt;Marketing&lt;br&gt;192.168.13.0/24" style="rounded=0;whiteSpace=wrap;html=1;fillColor=#a20025;fontColor=#ffffff;strokeColor=#6F0000;" vertex="1" parent="JDvsjkRAIQbsqcDF0xb_-45">
          <mxGeometry x="230" y="10" width="100" height="60" as="geometry" />
        </mxCell>
        <mxCell id="JDvsjkRAIQbsqcDF0xb_-50" value="VLAN 4&lt;br&gt;Engineering&lt;br&gt;192.168.14.0/24" style="rounded=0;whiteSpace=wrap;html=1;fillColor=#fa6800;fontColor=#000000;strokeColor=#C73500;" vertex="1" parent="JDvsjkRAIQbsqcDF0xb_-45">
          <mxGeometry x="340" y="10" width="100" height="60" as="geometry" />
        </mxCell>
        <mxCell id="JDvsjkRAIQbsqcDF0xb_-51" value="VLAN 5&lt;br&gt;Security&lt;br&gt;192.168.15.0/24" style="rounded=0;whiteSpace=wrap;html=1;fillColor=#647687;fontColor=#ffffff;strokeColor=#314354;" vertex="1" parent="JDvsjkRAIQbsqcDF0xb_-45">
          <mxGeometry x="450" y="10" width="100" height="60" as="geometry" />
        </mxCell>
        <mxCell id="JDvsjkRAIQbsqcDF0xb_-52" value="VLAN 6&lt;br&gt;Human Resources&lt;br&gt;192.168.16.0/24" style="rounded=0;whiteSpace=wrap;html=1;fillColor=#8800FF;strokeColor=#6c8ebf;gradientColor=none;" vertex="1" parent="JDvsjkRAIQbsqcDF0xb_-45">
          <mxGeometry x="560" y="10" width="100" height="60" as="geometry" />
        </mxCell>
        <mxCell id="JDvsjkRAIQbsqcDF0xb_-53" value="" style="group" vertex="1" connectable="0" parent="1">
          <mxGeometry x="20" y="733" width="690" height="120" as="geometry" />
        </mxCell>
        <mxCell id="JDvsjkRAIQbsqcDF0xb_-54" value="&lt;br&gt;&lt;br&gt;&lt;br&gt;&lt;br&gt;&lt;br&gt;Managed Switch&lt;br&gt;Cisco" style="rounded=0;whiteSpace=wrap;html=1;fillColor=#dae8fc;strokeColor=default;" vertex="1" parent="JDvsjkRAIQbsqcDF0xb_-53">
          <mxGeometry width="690" height="120" as="geometry" />
        </mxCell>
        <mxCell id="JDvsjkRAIQbsqcDF0xb_-55" value="VLAN 1&lt;br&gt;Management&lt;br&gt;192.168.20.0/24" style="rounded=0;whiteSpace=wrap;html=1;fillColor=#1ba1e2;fontColor=#ffffff;strokeColor=#006EAF;" vertex="1" parent="JDvsjkRAIQbsqcDF0xb_-53">
          <mxGeometry x="20" y="10" width="100" height="60" as="geometry" />
        </mxCell>
        <mxCell id="JDvsjkRAIQbsqcDF0xb_-56" value="VLAN 2&lt;br&gt;IT&lt;br&gt;192.168.22.0/24" style="rounded=0;whiteSpace=wrap;html=1;fillColor=#6a00ff;fontColor=#ffffff;strokeColor=#3700CC;" vertex="1" parent="JDvsjkRAIQbsqcDF0xb_-53">
          <mxGeometry x="130" y="10" width="100" height="60" as="geometry" />
        </mxCell>
        <mxCell id="JDvsjkRAIQbsqcDF0xb_-57" value="VLAN 3&lt;br&gt;Marketing&lt;br&gt;192.168.23.0/24" style="rounded=0;whiteSpace=wrap;html=1;fillColor=#a20025;fontColor=#ffffff;strokeColor=#6F0000;" vertex="1" parent="JDvsjkRAIQbsqcDF0xb_-53">
          <mxGeometry x="240" y="10" width="100" height="60" as="geometry" />
        </mxCell>
        <mxCell id="JDvsjkRAIQbsqcDF0xb_-58" value="VLAN 4&lt;br&gt;Engineering&lt;br&gt;192.168.24.0/24" style="rounded=0;whiteSpace=wrap;html=1;fillColor=#fa6800;fontColor=#000000;strokeColor=#C73500;" vertex="1" parent="JDvsjkRAIQbsqcDF0xb_-53">
          <mxGeometry x="350" y="10" width="100" height="60" as="geometry" />
        </mxCell>
        <mxCell id="JDvsjkRAIQbsqcDF0xb_-59" value="VLAN 5&lt;br&gt;Security&lt;br&gt;192.168.25.0/24" style="rounded=0;whiteSpace=wrap;html=1;fillColor=#647687;fontColor=#ffffff;strokeColor=#314354;" vertex="1" parent="JDvsjkRAIQbsqcDF0xb_-53">
          <mxGeometry x="460" y="10" width="100" height="60" as="geometry" />
        </mxCell>
        <mxCell id="JDvsjkRAIQbsqcDF0xb_-60" value="VLAN 6&lt;br&gt;Human Resources&lt;br&gt;192.168.26.0/24" style="rounded=0;whiteSpace=wrap;html=1;fillColor=#8800FF;strokeColor=#b46504;" vertex="1" parent="JDvsjkRAIQbsqcDF0xb_-53">
          <mxGeometry x="570" y="10" width="100" height="60" as="geometry" />
        </mxCell>
        <mxCell id="JDvsjkRAIQbsqcDF0xb_-61" value="Access Point" style="rounded=0;whiteSpace=wrap;html=1;fillColor=#dae8fc;strokeColor=#6c8ebf;" vertex="1" parent="1">
          <mxGeometry x="190" y="30" width="130" height="59.5" as="geometry" />
        </mxCell>
        <mxCell id="JDvsjkRAIQbsqcDF0xb_-62" value="Trunk" style="rounded=0;whiteSpace=wrap;html=1;" vertex="1" parent="1">
          <mxGeometry x="270.5" y="95" width="55" height="21" as="geometry" />
        </mxCell>
        <mxCell id="JDvsjkRAIQbsqcDF0xb_-63" value="Access Point" style="rounded=0;whiteSpace=wrap;html=1;fillColor=#dae8fc;strokeColor=#6c8ebf;" vertex="1" parent="1">
          <mxGeometry x="35" y="881" width="130" height="59.5" as="geometry" />
        </mxCell>
        <mxCell id="JDvsjkRAIQbsqcDF0xb_-64" value="Trunk" style="rounded=0;whiteSpace=wrap;html=1;" vertex="1" parent="1">
          <mxGeometry x="115.5" y="857" width="55" height="21" as="geometry" />
        </mxCell>
        <mxCell id="JDvsjkRAIQbsqcDF0xb_-65" value="VPN Connection&lt;div&gt;between the two&lt;/div&gt;&lt;div&gt;networks&lt;/div&gt;" style="rounded=0;whiteSpace=wrap;html=1;" vertex="1" parent="1">
          <mxGeometry x="605" y="256" width="120" height="60" as="geometry" />
        </mxCell>
        <mxCell id="gvya8yCxpQ9V4ksEp0Dl-1" value="" style="endArrow=none;html=1;rounded=0;strokeColor=#000000;strokeWidth=8;" edge="1" parent="1">
          <mxGeometry width="50" height="50" relative="1" as="geometry">
            <mxPoint x="316" y="530" as="sourcePoint" />
            <mxPoint x="360.5" y="530" as="targetPoint" />
          </mxGeometry>
        </mxCell>
        <mxCell id="gvya8yCxpQ9V4ksEp0Dl-2" value="Proxmox node 3&lt;div&gt;&lt;span style=&quot;background-color: initial;&quot;&gt;Game of Active Directory (GOAD)&lt;/span&gt;&lt;br&gt;&lt;/div&gt;&lt;div&gt;&lt;span style=&quot;background-color: initial;&quot;&gt;Windows Penetration Testing Lab&lt;/span&gt;&lt;/div&gt;&lt;div&gt;https://github.com/Orange-Cyberdefense/GOAD&lt;br&gt;&lt;/div&gt;" style="rounded=0;whiteSpace=wrap;html=1;fillColor=#dae8fc;strokeColor=#6c8ebf;" vertex="1" parent="1">
          <mxGeometry x="36" y="510" width="280" height="115" as="geometry" />
        </mxCell>
        <mxCell id="gG1sJ_HZfGOTWU4-TNQA-1" value="Access Point&lt;div&gt;VLANS&amp;nbsp;&lt;span style=&quot;background-color: initial;&quot;&gt;100-102&lt;/span&gt;&lt;/div&gt;" style="rounded=0;whiteSpace=wrap;html=1;fillColor=#dae8fc;strokeColor=#6c8ebf;" vertex="1" parent="1">
          <mxGeometry x="388" y="435" width="104" height="53" as="geometry" />
        </mxCell>
        <mxCell id="iwVZzM-GP_WKRaPaAtk2-1" value="Raspberry Pi" style="rounded=0;whiteSpace=wrap;html=1;fillColor=#f8cecc;strokeColor=#b85450;" vertex="1" parent="1">
          <mxGeometry x="357" y="630" width="65" height="30" as="geometry" />
        </mxCell>
        <mxCell id="iwVZzM-GP_WKRaPaAtk2-2" value="Raspberry Pi" style="rounded=0;whiteSpace=wrap;html=1;fillColor=#f8cecc;strokeColor=#b85450;" vertex="1" parent="1">
          <mxGeometry x="357" y="665" width="65" height="30" as="geometry" />
        </mxCell>
        <mxCell id="iwVZzM-GP_WKRaPaAtk2-3" value="Raspberry Pi" style="rounded=0;whiteSpace=wrap;html=1;fillColor=#f8cecc;strokeColor=#b85450;" vertex="1" parent="1">
          <mxGeometry x="427" y="630" width="65" height="30" as="geometry" />
        </mxCell>
        <mxCell id="iwVZzM-GP_WKRaPaAtk2-4" value="Raspberry Pi" style="rounded=0;whiteSpace=wrap;html=1;fillColor=#f8cecc;strokeColor=#b85450;" vertex="1" parent="1">
          <mxGeometry x="427" y="665" width="65" height="30" as="geometry" />
        </mxCell>
        <mxCell id="2AoigapLQLo58VCdEwQl-1" value="&lt;div&gt;&lt;br&gt;&lt;/div&gt;&lt;div&gt;&lt;br&gt;&lt;/div&gt;&lt;div&gt;&lt;br&gt;&lt;/div&gt;&lt;div&gt;&lt;br&gt;&lt;/div&gt;&lt;div&gt;&lt;br&gt;&lt;/div&gt;&lt;div&gt;&lt;span style=&quot;background-color: initial;&quot;&gt;IoT Penetration Testing Lab&lt;/span&gt;&lt;br&gt;&lt;/div&gt;" style="rounded=0;whiteSpace=wrap;html=1;fillColor=#ffe6cc;strokeColor=#d79b00;direction=west;" vertex="1" parent="1">
          <mxGeometry x="555" y="621.5" width="155" height="92" as="geometry" />
        </mxCell>
        <mxCell id="2AoigapLQLo58VCdEwQl-3" value="IoT Device" style="rounded=0;whiteSpace=wrap;html=1;fillColor=#f8cecc;strokeColor=#b85450;" vertex="1" parent="1">
          <mxGeometry x="566" y="626.5" width="65" height="30" as="geometry" />
        </mxCell>
        <mxCell id="2AoigapLQLo58VCdEwQl-4" value="IoT Device" style="rounded=0;whiteSpace=wrap;html=1;fillColor=#f8cecc;strokeColor=#b85450;" vertex="1" parent="1">
          <mxGeometry x="566" y="661.5" width="65" height="30" as="geometry" />
        </mxCell>
        <mxCell id="2AoigapLQLo58VCdEwQl-5" value="IoT Device" style="rounded=0;whiteSpace=wrap;html=1;fillColor=#f8cecc;strokeColor=#b85450;" vertex="1" parent="1">
          <mxGeometry x="636" y="626.5" width="65" height="30" as="geometry" />
        </mxCell>
        <mxCell id="2AoigapLQLo58VCdEwQl-6" value="IoT Device" style="rounded=0;whiteSpace=wrap;html=1;fillColor=#f8cecc;strokeColor=#b85450;" vertex="1" parent="1">
          <mxGeometry x="636" y="661.5" width="65" height="30" as="geometry" />
        </mxCell>
        <mxCell id="gvya8yCxpQ9V4ksEp0Dl-7" value="&lt;br&gt;&lt;br&gt;&lt;br&gt;&lt;br&gt;&lt;br&gt;Managed Cisco Switch" style="rounded=0;whiteSpace=wrap;html=1;fillColor=#dae8fc;strokeColor=default;" vertex="1" parent="1">
          <mxGeometry x="346" y="509" width="424" height="91" as="geometry" />
        </mxCell>
        <mxCell id="gvya8yCxpQ9V4ksEp0Dl-8" value="VLAN 100&lt;br&gt;GOAD Network&lt;br&gt;192.168.100.0/24" style="rounded=0;whiteSpace=wrap;html=1;fillColor=#1ba1e2;fontColor=#ffffff;strokeColor=#006EAF;" vertex="1" parent="1">
          <mxGeometry x="376" y="520" width="120" height="60" as="geometry" />
        </mxCell>
        <mxCell id="2AoigapLQLo58VCdEwQl-9" value="VLAN 101&lt;br&gt;SCADA Network&lt;br&gt;192.168.101.0/24" style="rounded=0;whiteSpace=wrap;html=1;fillColor=#e1d5e7;strokeColor=#9673a6;" vertex="1" parent="1">
          <mxGeometry x="510" y="520" width="120" height="60" as="geometry" />
        </mxCell>
        <mxCell id="Y2MYGTGE5BGQtIgaMysU-1" value="VLAN 102&lt;br&gt;SCADA Network&lt;br&gt;192.168.102.0/24" style="rounded=0;whiteSpace=wrap;html=1;fillColor=#f8cecc;strokeColor=#b85450;" vertex="1" parent="1">
          <mxGeometry x="640" y="520" width="120" height="60" as="geometry" />
        </mxCell>
        <mxCell id="Y2MYGTGE5BGQtIgaMysU-6" value="Various other VMs and Containers" style="rounded=0;whiteSpace=wrap;html=1;fillColor=#e1d5e7;strokeColor=#9673a6;" vertex="1" parent="1">
          <mxGeometry x="245" y="418" width="120" height="60" as="geometry" />
        </mxCell>
        <mxCell id="Y2MYGTGE5BGQtIgaMysU-7" value="Various other VMs and Containers" style="rounded=0;whiteSpace=wrap;html=1;fillColor=#e1d5e7;strokeColor=#9673a6;" vertex="1" parent="1">
          <mxGeometry x="485" y="1020" width="120" height="60" as="geometry" />
        </mxCell>
      </root>
    </mxGraphModel>
  </diagram>
</mxfile>
